<svg width="28" height="28" viewBox="0 0 28 28" fill="none" xmlns="http://www.w3.org/2000/svg">
<path d="M9.5 5C8.88125 5 8.375 5.50625 8.375 6.125V21.875C8.375 22.4938 8.88125 23 9.5 23H20.75C21.3688 23 21.875 22.4938 21.875 21.875V9.5L17.375 5H9.5Z" fill="#E2E5E7"/>
<path d="M18.5 9.5H21.875L17.375 5V8.375C17.375 8.99375 17.8812 9.5 18.5 9.5Z" fill="#B0B7BD"/>
<path d="M21.875 12.875L18.5 9.5H21.875V12.875Z" fill="#CAD1D8"/>
<path d="M19.625 19.625C19.625 19.9344 19.3719 20.1875 19.0625 20.1875H6.6875C6.37812 20.1875 6.125 19.9344 6.125 19.625V14C6.125 13.6906 6.37812 13.4375 6.6875 13.4375H19.0625C19.3719 13.4375 19.625 13.6906 19.625 14V19.625Z" fill="#84BD5A"/>
<path d="M9.70607 15.9502H8.93713C8.55912 15.9502 8.58162 15.3877 8.93713 15.3877H10.313C10.5875 15.3877 10.7135 15.7033 10.511 15.9052L9.76457 16.6027C10.3136 16.5622 10.745 16.9706 10.745 17.4751C10.745 18.0281 10.3541 18.5 9.53113 18.5C9.17113 18.5 8.81619 18.3515 8.60862 18.0281C8.39262 17.7091 8.85556 17.4026 9.09856 17.7176C9.21613 17.87 9.40513 17.9471 9.60707 17.9471C9.881 17.9471 10.151 17.8295 10.151 17.4746C10.151 17.0066 9.58007 17.0791 9.27013 17.1101C8.89213 17.1826 8.77963 16.7726 9.00013 16.6027L9.70607 15.9502Z" fill="white"/>
<path d="M11.6806 18.5C11.5321 18.5 11.3701 18.419 11.3701 18.2216V15.6667C11.3701 15.5053 11.5321 15.3877 11.6806 15.3877H12.7106C14.7659 15.3877 14.7209 18.5 12.7511 18.5H11.6806V18.5ZM11.9641 15.9367V17.9516H12.7106C13.925 17.9516 13.979 15.9367 12.7106 15.9367H11.9641V15.9367Z" fill="white"/>
<path d="M14.769 16.0626C14.8725 15.1897 16.1899 15.0327 16.8109 15.5097C17.1169 15.7567 16.7929 16.1481 16.5229 15.9501C16.1899 15.7392 15.4345 15.6402 15.34 16.1071C15.2185 16.8451 17.1748 16.4226 17.1433 17.6191C17.1118 18.7615 15.457 18.788 14.836 18.2755C14.6869 18.154 14.692 17.9566 14.773 17.8345C14.89 17.7181 15.0199 17.6776 15.1735 17.8036C15.5419 18.055 16.4914 18.244 16.5583 17.605C16.5004 16.9401 14.6295 17.3401 14.769 16.0626Z" fill="white"/>
<path d="M19.0625 20.1875H8.375V20.75H19.0625C19.3719 20.75 19.625 20.4969 19.625 20.1875V19.625C19.625 19.9344 19.3719 20.1875 19.0625 20.1875Z" fill="#CAD1D8"/>
</svg>
