<svg width="28" height="28" viewBox="0 0 28 28" fill="none" xmlns="http://www.w3.org/2000/svg">
<path d="M9.5 5C8.88125 5 8.375 5.50625 8.375 6.125V21.875C8.375 22.4938 8.88125 23 9.5 23H20.75C21.3688 23 21.875 22.4938 21.875 21.875V9.5L17.375 5H9.5Z" fill="#E2E5E7"/>
<path d="M18.5 9.5H21.875L17.375 5V8.375C17.375 8.99375 17.8812 9.5 18.5 9.5Z" fill="#B0B7BD"/>
<path d="M21.875 12.875L18.5 9.5H21.875V12.875Z" fill="#CAD1D8"/>
<path d="M19.625 19.625C19.625 19.9344 19.3719 20.1875 19.0625 20.1875H6.6875C6.37812 20.1875 6.125 19.9344 6.125 19.625V14C6.125 13.6906 6.37812 13.4375 6.6875 13.4375H19.0625C19.3719 13.4375 19.625 13.6906 19.625 14V19.625Z" fill="#F15642"/>
<path d="M8.10679 18.5C7.96279 18.419 7.87279 18.257 7.96279 18.068L9.25373 15.5458C9.37523 15.3073 9.69866 15.2983 9.81116 15.5458L11.0796 18.068C11.2641 18.419 10.7196 18.6975 10.5576 18.347L10.3596 17.9516H8.70023L8.50617 18.347C8.43529 18.5 8.26935 18.5321 8.10679 18.5ZM10.0412 17.3582L9.53273 16.2467L8.97923 17.3582H10.0412Z" fill="white"/>
<path d="M11.6507 18.5C11.5067 18.419 11.4167 18.257 11.5067 18.068L12.7971 15.5458C12.9186 15.3073 13.2426 15.2983 13.3551 15.5458L14.623 18.068C14.8075 18.419 14.263 18.6975 14.1015 18.347L13.903 17.9516H12.2436L12.0501 18.347C11.9787 18.5 11.8122 18.5321 11.6507 18.5ZM13.5846 17.3582L13.0767 16.2467L12.5237 17.3582H13.5846Z" fill="white"/>
<path d="M14.9287 16.9211C14.9287 16.0531 15.4732 15.3073 16.5076 15.3073C16.8991 15.3073 17.2091 15.4237 17.5376 15.7072C17.6591 15.8191 17.6726 16.0177 17.5511 16.1431C17.4296 16.2506 17.2451 16.2376 17.1376 16.1302C16.9531 15.9367 16.7641 15.8833 16.5076 15.8833C15.8152 15.8833 15.4822 16.3732 15.4822 16.9216C15.4822 17.4796 15.8107 17.9926 16.5076 17.9926C16.7641 17.9926 17.0026 17.8886 17.2091 17.7046C17.3486 17.5966 17.5421 17.6501 17.6231 17.7586C17.6951 17.8576 17.7305 18.0236 17.5736 18.1811C17.2586 18.4741 16.8811 18.5321 16.5071 18.5321C15.4192 18.5321 14.9287 17.7896 14.9287 16.9211Z" fill="white"/>
<path d="M19.0625 20.1875H8.375V20.75H19.0625C19.3719 20.75 19.625 20.4969 19.625 20.1875V19.625C19.625 19.9344 19.3719 20.1875 19.0625 20.1875Z" fill="#CAD1D8"/>
</svg>
