<svg width="28" height="28" viewBox="0 0 28 28" fill="none" xmlns="http://www.w3.org/2000/svg">
<path d="M9.5 5C8.88125 5 8.375 5.50625 8.375 6.125V21.875C8.375 22.4938 8.88125 23 9.5 23H20.75C21.3688 23 21.875 22.4938 21.875 21.875V9.5L17.375 5H9.5Z" fill="#E2E5E7"/>
<path d="M18.5 9.5H21.875L17.375 5V8.375C17.375 8.99375 17.8812 9.5 18.5 9.5Z" fill="#B0B7BD"/>
<path d="M21.875 12.875L18.5 9.5H21.875V12.875Z" fill="#CAD1D8"/>
<path d="M19.625 19.625C19.625 19.9344 19.3719 20.1875 19.0625 20.1875H6.6875C6.37812 20.1875 6.125 19.9344 6.125 19.625V14C6.125 13.6906 6.37812 13.4375 6.6875 13.4375H19.0625C19.3719 13.4375 19.625 13.6906 19.625 14V19.625Z" fill="#F7B84E"/>
<path d="M10.7738 18.5C10.6298 18.4184 10.5398 18.257 10.6298 18.068L11.9202 15.5452C12.0417 15.3067 12.3657 15.2977 12.4782 15.5452L13.746 18.068C13.9305 18.4184 13.386 18.6974 13.2246 18.347L13.026 17.951H11.3667L11.1732 18.347C11.1017 18.5 10.9352 18.5321 10.7738 18.5ZM12.7071 17.3576L12.1992 16.2466L11.6462 17.3576H12.7071Z" fill="white"/>
<path d="M14.2832 15.6577C14.2832 15.2887 14.8772 15.2752 14.8772 15.6577V18.2249C14.8772 18.5984 14.2832 18.6074 14.2832 18.2249V15.6577Z" fill="white"/>
<path d="M19.0625 20.1875H8.375V20.75H19.0625C19.3719 20.75 19.625 20.4969 19.625 20.1875V19.625C19.625 19.9344 19.3719 20.1875 19.0625 20.1875Z" fill="#CAD1D8"/>
</svg>
