<svg width="28" height="28" viewBox="0 0 28 28" fill="none" xmlns="http://www.w3.org/2000/svg">
<path d="M9.5 5C8.88125 5 8.375 5.50625 8.375 6.125V21.875C8.375 22.4938 8.88125 23 9.5 23H20.75C21.3688 23 21.875 22.4938 21.875 21.875V9.5L17.375 5H9.5Z" fill="#E2E5E7"/>
<path d="M18.5 9.5H21.875L17.375 5V8.375C17.375 8.99375 17.8812 9.5 18.5 9.5Z" fill="#B0B7BD"/>
<path d="M21.875 12.875L18.5 9.5H21.875V12.875Z" fill="#CAD1D8"/>
<path d="M19.625 19.625C19.625 19.9344 19.3719 20.1875 19.0625 20.1875H6.6875C6.37812 20.1875 6.125 19.9344 6.125 19.625V14C6.125 13.6906 6.37812 13.4375 6.6875 13.4375H19.0625C19.3719 13.4375 19.625 13.6906 19.625 14V19.625Z" fill="#F15642"/>
<path d="M9.26792 18.5006C9.12392 18.419 9.03392 18.2576 9.12392 18.0686L10.4149 15.5458C10.5364 15.3073 10.8598 15.2983 10.9723 15.5458L12.2407 18.0686C12.4252 18.419 11.8807 18.698 11.7187 18.347L11.5207 17.9516H9.86136L9.66843 18.3476C9.59643 18.5006 9.42992 18.5321 9.26792 18.5006ZM11.2018 17.3582L10.6933 16.2472L10.1404 17.3582H11.2018Z" fill="white"/>
<path d="M13.493 18.2981L12.3055 15.8113C12.13 15.4558 12.661 15.1638 12.8585 15.5368L13.259 16.4407L13.7759 17.6276L14.2839 16.4407L14.6844 15.5368C14.8644 15.1953 15.3858 15.4108 15.2334 15.7843L14.0864 18.2981C13.9829 18.5816 13.6634 18.6491 13.493 18.2981Z" fill="white"/>
<path d="M15.7881 15.6577C15.7881 15.2893 16.3821 15.2752 16.3821 15.6577V18.2255C16.3821 18.599 15.7881 18.608 15.7881 18.2255V15.6577Z" fill="white"/>
<path d="M19.0625 20.1875H8.375V20.75H19.0625C19.3719 20.75 19.625 20.4969 19.625 20.1875V19.625C19.625 19.9344 19.3719 20.1875 19.0625 20.1875Z" fill="#CAD1D8"/>
</svg>
