<svg width="28" height="28" viewBox="0 0 28 28" fill="none" xmlns="http://www.w3.org/2000/svg">
<path d="M9.5 5C8.88125 5 8.375 5.50625 8.375 6.125V21.875C8.375 22.4938 8.88125 23 9.5 23H20.75C21.3688 23 21.875 22.4938 21.875 21.875V9.5L17.375 5H9.5Z" fill="#E2E5E7"/>
<path d="M18.5 9.5H21.875L17.375 5V8.375C17.375 8.99375 17.8812 9.5 18.5 9.5Z" fill="#B0B7BD"/>
<path d="M21.875 12.875L18.5 9.5H21.875V12.875Z" fill="#CAD1D8"/>
<path d="M19.625 19.625C19.625 19.9344 19.3719 20.1875 19.0625 20.1875H6.6875C6.37812 20.1875 6.125 19.9344 6.125 19.625V14C6.125 13.6906 6.37812 13.4375 6.6875 13.4375H19.0625C19.3719 13.4375 19.625 13.6906 19.625 14V19.625Z" fill="#84BD5A"/>
<path d="M8.51473 18.5001C8.35273 18.5001 8.24023 18.3786 8.24023 18.2211V15.6668C8.24023 15.5048 8.35273 15.3878 8.51473 15.3878H9.77867C10.3682 15.3878 10.6871 15.7883 10.6871 16.2468C10.6871 16.4487 10.6286 16.6473 10.4402 16.8138C10.7951 16.9533 10.9526 17.2272 10.9526 17.5602C10.952 18.0771 10.601 18.5001 9.92661 18.5001H8.51473ZM9.77811 15.9363H8.82917V16.6062H9.77811C9.97161 16.6062 10.0931 16.4847 10.0931 16.2462C10.0931 16.0983 9.97161 15.9363 9.77811 15.9363ZM8.82917 17.9511H9.92661C10.4486 17.9511 10.4486 17.1552 9.92661 17.1552C9.58517 17.1552 9.18467 17.1552 8.82917 17.1552V17.9511Z" fill="white"/>
<path d="M12.0827 16.5257V18.1896C12.0827 18.3881 11.9207 18.5001 11.7593 18.5001C11.6153 18.5001 11.4893 18.3881 11.4893 18.1896V15.6577C11.4893 15.4237 11.6878 15.3467 11.7593 15.3467C11.8892 15.3467 11.9657 15.4237 12.0422 15.5092L13.0322 16.8446L14.0571 15.4592C14.2061 15.2752 14.5701 15.3467 14.5701 15.6577V18.1896C14.5701 18.3881 14.4441 18.5001 14.3006 18.5001C14.1386 18.5001 14.0126 18.3881 14.0126 18.1896V16.5257L13.2656 17.4701C13.1042 17.6687 12.9017 17.6687 12.7532 17.4701L12.0827 16.5257Z" fill="white"/>
<path d="M15.2021 15.6577C15.2021 15.5092 15.3191 15.3467 15.5081 15.3467H16.5471C17.1321 15.3467 17.6586 15.7382 17.6586 16.4891C17.6586 17.2001 17.1321 17.5956 16.5471 17.5956H15.7961V18.1896C15.7961 18.3881 15.6701 18.5001 15.5081 18.5001C15.3596 18.5001 15.2021 18.3881 15.2021 18.1896V15.6577ZM15.7956 15.9137V17.0336H16.5465C16.848 17.0336 17.0865 16.7681 17.0865 16.4891C17.0865 16.1741 16.848 15.9137 16.5465 15.9137H15.7956Z" fill="white"/>
<path d="M19.0625 20.1875H8.375V20.75H19.0625C19.3719 20.75 19.625 20.4969 19.625 20.1875V19.625C19.625 19.9344 19.3719 20.1875 19.0625 20.1875Z" fill="#CAD1D8"/>
</svg>
