<svg width="28" height="28" viewBox="0 0 28 28" fill="none" xmlns="http://www.w3.org/2000/svg">
<path d="M9.5 5C8.88125 5 8.375 5.50625 8.375 6.125V21.875C8.375 22.4938 8.88125 23 9.5 23H20.75C21.3688 23 21.875 22.4938 21.875 21.875V9.5L17.375 5H9.5Z" fill="#E2E5E7"/>
<path d="M18.5 9.5H21.875L17.375 5V8.375C17.375 8.99375 17.8812 9.5 18.5 9.5Z" fill="#B0B7BD"/>
<path d="M21.875 12.875L18.5 9.5H21.875V12.875Z" fill="#CAD1D8"/>
<path d="M19.625 19.625C19.625 19.9344 19.3719 20.1875 19.0625 20.1875H6.6875C6.37812 20.1875 6.125 19.9344 6.125 19.625V14C6.125 13.6906 6.37812 13.4375 6.6875 13.4375H19.0625C19.3719 13.4375 19.625 13.6906 19.625 14V19.625Z" fill="#50BEE8"/>
<path d="M8.01074 16.9211C8.01074 16.0532 8.55524 15.3068 9.58968 15.3068C9.98062 15.3068 10.2911 15.4238 10.6196 15.7073C10.7411 15.8192 10.7541 16.0178 10.6326 16.1432C10.5111 16.2506 10.3271 16.2377 10.2191 16.1297C10.0346 15.9362 9.84562 15.8828 9.58968 15.8828C8.89724 15.8828 8.56424 16.3733 8.56424 16.9217C8.56424 17.4797 8.89274 17.9921 9.58968 17.9921C9.84562 17.9921 10.0841 17.8886 10.2911 17.7041C10.4306 17.5967 10.6241 17.6501 10.7046 17.7581C10.7766 17.8571 10.8126 18.0236 10.6551 18.1811C10.3401 18.4736 9.96262 18.5321 9.58912 18.5321C8.50124 18.5321 8.01074 17.7896 8.01074 16.9211Z" fill="white"/>
<path d="M11.3646 18.5C11.2206 18.419 11.1306 18.257 11.2206 18.068L12.511 15.5452C12.6325 15.3067 12.9565 15.2983 13.069 15.5452L14.3368 18.068C14.5213 18.419 13.9768 18.6975 13.8154 18.347L13.6168 17.951H11.9575L11.764 18.347C11.6925 18.5 11.5266 18.5321 11.3646 18.5ZM13.2985 17.3581L12.7905 16.2466L12.2376 17.3581H13.2985Z" fill="white"/>
<path d="M15.1689 18.5001C15.0204 18.5001 14.8584 18.4191 14.8584 18.2217V15.6668C14.8584 15.5048 15.0204 15.3878 15.1689 15.3878H16.1988C18.2542 15.3878 18.2092 18.5001 16.2393 18.5001H15.1689V18.5001ZM15.4524 15.9363V17.9511H16.1988C17.4133 17.9511 17.4673 15.9363 16.1988 15.9363H15.4524Z" fill="white"/>
<path d="M19.0625 20.1875H8.375V20.75H19.0625C19.3719 20.75 19.625 20.4969 19.625 20.1875V19.625C19.625 19.9344 19.3719 20.1875 19.0625 20.1875Z" fill="#CAD1D8"/>
</svg>
