<svg width="28" height="28" viewBox="0 0 28 28" fill="none" xmlns="http://www.w3.org/2000/svg">
<path d="M9.5 5C8.88125 5 8.375 5.50625 8.375 6.125V21.875C8.375 22.4938 8.88125 23 9.5 23H20.75C21.3688 23 21.875 22.4938 21.875 21.875V9.5L17.375 5H9.5Z" fill="#E2E5E7"/>
<path d="M18.5 9.5H21.875L17.375 5V8.375C17.375 8.99375 17.8812 9.5 18.5 9.5Z" fill="#B0B7BD"/>
<path d="M21.875 12.875L18.5 9.5H21.875V12.875Z" fill="#CAD1D8"/>
<path d="M19.625 19.625C19.625 19.9344 19.3719 20.1875 19.0625 20.1875H6.6875C6.37812 20.1875 6.125 19.9344 6.125 19.625V14C6.125 13.6906 6.37812 13.4375 6.6875 13.4375H19.0625C19.3719 13.4375 19.625 13.6906 19.625 14V19.625Z" fill="#84BD5A"/>
<path d="M8.18457 16.9211C8.18457 16.0531 8.72851 15.3073 9.76351 15.3073C10.1544 15.3073 10.4649 15.4237 10.7934 15.7072C10.9149 15.8191 10.9279 16.0177 10.8064 16.1431C10.6849 16.2506 10.5004 16.2376 10.3929 16.1302C10.2084 15.9367 10.0194 15.8833 9.76351 15.8833C9.07107 15.8833 8.73807 16.3732 8.73807 16.9216C8.73807 17.4796 9.06601 17.9926 9.76351 17.9926C10.0194 17.9926 10.2579 17.8886 10.4649 17.7046C10.6044 17.5966 10.7979 17.6501 10.8784 17.7586C10.9504 17.8576 10.9864 18.0236 10.8289 18.1811C10.5139 18.4741 10.1364 18.5321 9.76295 18.5321C8.67507 18.5321 8.18457 17.7896 8.18457 16.9211Z" fill="white"/>
<path d="M11.8574 18.5C11.7089 18.5 11.5469 18.419 11.5469 18.2216V15.6667C11.5469 15.5053 11.7089 15.3877 11.8574 15.3877H12.8873C14.9427 15.3877 14.8977 18.5 12.9278 18.5H11.8574V18.5ZM12.1409 15.9367V17.9516H12.8873C14.1018 17.9516 14.1558 15.9367 12.8873 15.9367H12.1409V15.9367Z" fill="white"/>
<path d="M15.638 18.2075C15.638 18.5984 15.04 18.6125 15.04 18.2165V15.6622C15.04 15.5053 15.1615 15.3877 15.3095 15.3877H16.5059C17.6484 15.3877 17.8824 16.9171 16.9289 17.2991L17.5269 18.0281C17.7609 18.3746 17.2929 18.707 17.0229 18.3656L16.3439 17.3936H15.6374V18.2075H15.638V18.2075ZM15.638 16.8766H16.5059C17.0909 16.8766 17.1269 15.9322 16.5059 15.9322H15.638V16.8766Z" fill="white"/>
<path d="M19.0625 20.1875H8.375V20.75H19.0625C19.3719 20.75 19.625 20.4969 19.625 20.1875V19.625C19.625 19.9344 19.3719 20.1875 19.0625 20.1875Z" fill="#CAD1D8"/>
</svg>
