<svg width="28" height="28" viewBox="0 0 28 28" fill="none" xmlns="http://www.w3.org/2000/svg">
<path d="M9.5 5C8.88125 5 8.375 5.50625 8.375 6.125V21.875C8.375 22.4938 8.88125 23 9.5 23H20.75C21.3688 23 21.875 22.4938 21.875 21.875V9.5L17.375 5H9.5Z" fill="#E2E5E7"/>
<path d="M18.5 9.5H21.875L17.375 5V8.375C17.375 8.99375 17.8812 9.5 18.5 9.5Z" fill="#B0B7BD"/>
<path d="M21.875 12.875L18.5 9.5H21.875V12.875Z" fill="#CAD1D8"/>
<path d="M19.625 19.625C19.625 19.9344 19.3719 20.1875 19.0625 20.1875H6.6875C6.37812 20.1875 6.125 19.9344 6.125 19.625V14C6.125 13.6906 6.37812 13.4375 6.6875 13.4375H19.0625C19.3719 13.4375 19.625 13.6906 19.625 14V19.625Z" fill="#576D7E"/>
<path d="M8.6543 16.9211C8.6543 16.0532 9.19823 15.3068 10.2332 15.3068C10.6242 15.3068 10.9347 15.4238 11.2632 15.7073C11.3847 15.8192 11.3976 16.0172 11.2761 16.1432C11.1546 16.2506 10.9701 16.2377 10.8627 16.1297C10.6782 15.9362 10.4892 15.8828 10.2332 15.8828C9.5408 15.8828 9.2078 16.3733 9.2078 16.9217C9.2078 17.4797 9.5363 17.9921 10.2332 17.9921C10.4892 17.9921 10.7277 17.8881 10.9347 17.7041C11.0742 17.5961 11.2677 17.6496 11.3481 17.7581C11.4201 17.8571 11.4561 18.0236 11.2986 18.1806C10.9836 18.4736 10.6062 18.5321 10.2327 18.5321C9.1448 18.5321 8.6543 17.7891 8.6543 16.9211Z" fill="white"/>
<path d="M11.8803 16.0621C11.9838 15.1897 13.3012 15.0327 13.9222 15.5097C14.2282 15.7567 13.9042 16.1482 13.6342 15.9502C13.3012 15.7387 12.5458 15.6397 12.4513 16.1071C12.3298 16.8451 14.2862 16.4227 14.2547 17.6186C14.2232 18.761 12.5683 18.788 11.9473 18.275C11.7982 18.1541 11.8033 17.9566 11.8843 17.8346C12.0013 17.7181 12.1312 17.6776 12.2848 17.8031C12.6532 18.0551 13.6027 18.2441 13.6697 17.6045C13.6123 16.9396 11.7408 17.3401 11.8803 16.0621Z" fill="white"/>
<path d="M14.72 16.0621C14.8235 15.1897 16.1409 15.0327 16.7619 15.5097C17.0679 15.7567 16.7439 16.1482 16.4739 15.9502C16.1409 15.7387 15.3854 15.6397 15.2909 16.1071C15.1694 16.8451 17.1258 16.4227 17.0943 17.6186C17.0628 18.761 15.4079 18.788 14.7869 18.275C14.6384 18.1541 14.6429 17.9566 14.7239 17.8346C14.8409 17.7181 14.9709 17.6776 15.1244 17.8031C15.4929 18.0551 16.4424 18.2441 16.5099 17.6045C16.4514 16.9396 14.5805 17.3401 14.72 16.0621Z" fill="white"/>
<path d="M19.0625 20.1875H8.375V20.75H19.0625C19.3719 20.75 19.625 20.4969 19.625 20.1875V19.625C19.625 19.9344 19.3719 20.1875 19.0625 20.1875Z" fill="#CAD1D8"/>
</svg>
