<svg width="28" height="28" viewBox="0 0 28 28" fill="none" xmlns="http://www.w3.org/2000/svg">
<path d="M9.5 5C8.88125 5 8.375 5.50625 8.375 6.125V21.875C8.375 22.4938 8.88125 23 9.5 23H20.75C21.3688 23 21.875 22.4938 21.875 21.875V9.5L17.375 5H9.5Z" fill="#E2E5E7"/>
<path d="M18.5 9.5H21.875L17.375 5V8.375C17.375 8.99375 17.8812 9.5 18.5 9.5Z" fill="#B0B7BD"/>
<path d="M21.875 12.875L18.5 9.5H21.875V12.875Z" fill="#CAD1D8"/>
<path d="M19.625 19.625C19.625 19.9344 19.3719 20.1875 19.0625 20.1875H6.6875C6.37812 20.1875 6.125 19.9344 6.125 19.625V14C6.125 13.6906 6.37812 13.4375 6.6875 13.4375H19.0625C19.3719 13.4375 19.625 13.6906 19.625 14V19.625Z" fill="#A066AA"/>
<path d="M8.01074 16.9211C8.01074 16.0532 8.55524 15.3068 9.58968 15.3068C9.98062 15.3068 10.2911 15.4238 10.6196 15.7073C10.7411 15.8192 10.7541 16.0178 10.6326 16.1432C10.5111 16.2506 10.3271 16.2377 10.2191 16.1297C10.0346 15.9362 9.84562 15.8828 9.58968 15.8828C8.89724 15.8828 8.56424 16.3733 8.56424 16.9217C8.56424 17.4797 8.89274 17.9921 9.58968 17.9921C9.84562 17.9921 10.0841 17.8886 10.2911 17.7041C10.4306 17.5967 10.6241 17.6501 10.7046 17.7581C10.7766 17.8571 10.8126 18.0236 10.6551 18.1811C10.3401 18.4736 9.96262 18.5321 9.58912 18.5321C8.50124 18.5321 8.01074 17.7896 8.01074 16.9211Z" fill="white"/>
<path d="M11.5022 16.0621C11.6057 15.1897 12.9231 15.0327 13.5441 15.5097C13.8501 15.7567 13.5261 16.1482 13.2561 15.9502C12.9231 15.7387 12.1677 15.6397 12.0732 16.1071C11.9517 16.8451 13.9081 16.4227 13.8771 17.6186C13.8456 18.761 12.1902 18.788 11.5692 18.275C11.4207 18.1541 11.4252 17.9566 11.5062 17.8346C11.6232 17.7181 11.7537 17.6776 11.9067 17.8031C12.2751 18.0551 13.2246 18.2441 13.2916 17.6045C13.2336 16.9396 11.3627 17.3401 11.5022 16.0621Z" fill="white"/>
<path d="M15.5525 18.298L14.3651 15.8107C14.1896 15.4552 14.7206 15.1632 14.918 15.5362L15.3185 16.4401L15.8355 17.6275L16.3434 16.4401L16.7439 15.5362C16.9239 15.1947 17.4454 15.4102 17.2929 15.7837L16.146 18.298C16.0425 18.5815 15.7235 18.6485 15.5525 18.298Z" fill="white"/>
<path d="M19.0625 20.1875H8.375V20.75H19.0625C19.3719 20.75 19.625 20.4969 19.625 20.1875V19.625C19.625 19.9344 19.3719 20.1875 19.0625 20.1875Z" fill="#CAD1D8"/>
</svg>
