<svg width="28" height="28" viewBox="0 0 28 28" fill="none" xmlns="http://www.w3.org/2000/svg">
<path d="M9.5 5C8.88125 5 8.375 5.50625 8.375 6.125V21.875C8.375 22.4938 8.88125 23 9.5 23H20.75C21.3688 23 21.875 22.4938 21.875 21.875V9.5L17.375 5H9.5Z" fill="#E2E5E7"/>
<path d="M18.5 9.5H21.875L17.375 5V8.375C17.375 8.99375 17.8812 9.5 18.5 9.5Z" fill="#B0B7BD"/>
<path d="M21.875 12.875L18.5 9.5H21.875V12.875Z" fill="#CAD1D8"/>
<path d="M19.625 19.625C19.625 19.9344 19.3719 20.1875 19.0625 20.1875H6.6875C6.37812 20.1875 6.125 19.9344 6.125 19.625V14C6.125 13.6906 6.37812 13.4375 6.6875 13.4375H19.0625C19.3719 13.4375 19.625 13.6906 19.625 14V19.625Z" fill="#84BD5A"/>
<path d="M8.87691 18.5C8.72841 18.5 8.56641 18.419 8.56641 18.2216V15.6667C8.56641 15.5047 8.72841 15.3877 8.87691 15.3877H9.90684C11.9622 15.3877 11.9172 18.5 9.94734 18.5H8.87691V18.5ZM9.1604 15.9361V17.951H9.90684C11.1213 17.951 11.1753 15.9361 9.90684 15.9361H9.1604Z" fill="white"/>
<path d="M11.9005 18.5C11.7565 18.419 11.6671 18.257 11.7565 18.068L13.0474 15.5452C13.1689 15.3067 13.4929 15.2983 13.6054 15.5452L14.8733 18.068C15.0578 18.419 14.5133 18.6975 14.3519 18.347L14.1533 17.951H12.4939L12.3004 18.347C12.229 18.5 12.0625 18.5321 11.9005 18.5ZM13.8344 17.3581L13.3264 16.2466L12.7735 17.3581H13.8344Z" fill="white"/>
<path d="M15.7436 15.9502H14.9567C14.5652 15.9502 14.5652 15.3748 14.9567 15.3748H17.0835C17.484 15.3748 17.484 15.9502 17.0835 15.9502H16.3371V18.2216C16.3371 18.6125 15.7431 18.6215 15.7431 18.2216V15.9502H15.7436Z" fill="white"/>
<path d="M19.0625 20.1875H8.375V20.75H19.0625C19.3719 20.75 19.625 20.4969 19.625 20.1875V19.625C19.625 19.9344 19.3719 20.1875 19.0625 20.1875Z" fill="#CAD1D8"/>
</svg>
