<svg width="28" height="28" viewBox="0 0 28 28" fill="none" xmlns="http://www.w3.org/2000/svg">
<g clip-path="url(#clip0_10117_68245)">
<path d="M9.5 5C8.88125 5 8.375 5.50625 8.375 6.125V21.875C8.375 22.4938 8.88125 23 9.5 23H20.75C21.3688 23 21.875 22.4938 21.875 21.875V9.5L17.375 5H9.5Z" fill="#E2E5E7"/>
<path d="M18.5 9.5H21.875L17.375 5V8.375C17.375 8.99375 17.8812 9.5 18.5 9.5Z" fill="#B0B7BD"/>
<path d="M21.875 12.875L18.5 9.5H21.875V12.875Z" fill="#CAD1D8"/>
<path d="M19.625 19.625C19.625 19.9344 19.3719 20.1875 19.0625 20.1875H6.6875C6.37812 20.1875 6.125 19.9344 6.125 19.625V14C6.125 13.6906 6.37812 13.4375 6.6875 13.4375H19.0625C19.3719 13.4375 19.625 13.6906 19.625 14V19.625Z" fill="#576D7E"/>
<path d="M9.15132 18.5005C9.00282 18.5005 8.84082 18.4189 8.84082 18.2215V15.6672C8.84082 15.5052 9.00282 15.3882 9.15132 15.3882H10.1813C12.2366 15.3882 12.1916 18.5005 10.2218 18.5005H9.15132V18.5005ZM9.43482 15.9366V17.9515H10.1813C11.3957 17.9515 11.4497 15.9366 10.1813 15.9366H9.43482Z" fill="white"/>
<path d="M12.334 15.6577C12.334 15.5092 12.46 15.3832 12.6175 15.3832C12.7615 15.3832 12.883 15.5097 12.883 15.6577V17.9111H14.1064C14.5469 17.9111 14.5564 18.5 14.1064 18.5H12.618C12.4605 18.5 12.3345 18.3881 12.3345 18.2255V15.6577H12.334Z" fill="white"/>
<path d="M14.9688 15.6577C14.9688 15.5092 15.0948 15.3832 15.2523 15.3832C15.3963 15.3832 15.5178 15.5097 15.5178 15.6577V17.9111H16.7412C17.1816 17.9111 17.1912 18.5 16.7412 18.5H15.2528C15.0953 18.5 14.9693 18.3881 14.9693 18.2255V15.6577H14.9688Z" fill="white"/>
<path d="M19.0625 20.1875H8.375V20.75H19.0625C19.3719 20.75 19.625 20.4969 19.625 20.1875V19.625C19.625 19.9344 19.3719 20.1875 19.0625 20.1875Z" fill="#CAD1D8"/>
</g>
<defs>
<clipPath id="clip0_10117_68245">
<rect width="28" height="28" fill="white"/>
</clipPath>
</defs>
</svg>
