<svg width="28" height="28" viewBox="0 0 28 28" fill="none" xmlns="http://www.w3.org/2000/svg">
<path d="M9.5 5C8.88125 5 8.375 5.50625 8.375 6.125V21.875C8.375 22.4938 8.88125 23 9.5 23H20.75C21.3688 23 21.875 22.4938 21.875 21.875V9.5L17.375 5H9.5Z" fill="#E2E5E7"/>
<path d="M18.5 9.5H21.875L17.375 5V8.375C17.375 8.99375 17.8812 9.5 18.5 9.5Z" fill="#B0B7BD"/>
<path d="M21.875 12.875L18.5 9.5H21.875V12.875Z" fill="#CAD1D8"/>
<path d="M19.625 19.625C19.625 19.9344 19.3719 20.1875 19.0625 20.1875H6.6875C6.37812 20.1875 6.125 19.9344 6.125 19.625V14C6.125 13.6906 6.37812 13.4375 6.6875 13.4375H19.0625C19.3719 13.4375 19.625 13.6906 19.625 14V19.625Z" fill="#576D7E"/>
<path d="M8.13667 18.5C7.98817 18.5 7.82617 18.4184 7.82617 18.221V15.6667C7.82617 15.5047 7.98817 15.3877 8.13667 15.3877H9.16661C11.2225 15.3877 11.177 18.5 9.20711 18.5H8.13667V18.5ZM8.42017 15.9361V17.951H9.16661C10.381 17.951 10.435 15.9361 9.16661 15.9361H8.42017Z" fill="white"/>
<path d="M11.9147 16.5257V18.1896C11.9147 18.3881 11.7527 18.5001 11.5913 18.5001C11.4473 18.5001 11.3213 18.3881 11.3213 18.1896V15.6577C11.3213 15.4237 11.5199 15.3467 11.5913 15.3467C11.7212 15.3467 11.7977 15.4237 11.8742 15.5092L12.8642 16.8446L13.8891 15.4592C14.0382 15.2752 14.4021 15.3467 14.4021 15.6577V18.1896C14.4021 18.3881 14.2755 18.5001 14.1321 18.5001C13.9707 18.5001 13.8441 18.3881 13.8441 18.1896V16.5257L13.0977 17.4701C12.9362 17.6687 12.7337 17.6687 12.5852 17.4701L11.9147 16.5257Z" fill="white"/>
<path d="M17.7868 18.1541C17.4673 18.419 17.0758 18.5321 16.6804 18.5321C15.7354 18.5321 15.0654 17.9921 15.0654 16.9216C15.0654 16.0132 15.7719 15.3073 16.7203 15.3073C17.0758 15.3073 17.4667 15.4288 17.7457 15.7033C18.0202 15.9727 17.6242 16.3732 17.3548 16.1353C17.1883 15.9727 16.9543 15.8518 16.7203 15.8518C16.1764 15.8518 15.6504 16.2877 15.6504 16.9216C15.6504 17.5876 16.0909 17.9921 16.6804 17.9921C16.9543 17.9921 17.1883 17.9111 17.3548 17.7896V17.2372H16.6804C16.2799 17.2372 16.3204 16.6876 16.6804 16.6876H17.5798C17.7463 16.6876 17.8987 16.8142 17.8987 16.9537V17.9116C17.8993 17.9921 17.8633 18.068 17.7868 18.1541Z" fill="white"/>
<path d="M19.0625 20.1875H8.375V20.75H19.0625C19.3719 20.75 19.625 20.4969 19.625 20.1875V19.625C19.625 19.9344 19.3719 20.1875 19.0625 20.1875Z" fill="#CAD1D8"/>
</svg>
