<svg width="28" height="28" viewBox="0 0 28 28" fill="none" xmlns="http://www.w3.org/2000/svg">
<path d="M9.5 5C8.88125 5 8.375 5.50625 8.375 6.125V21.875C8.375 22.4938 8.88125 23 9.5 23H20.75C21.3688 23 21.875 22.4938 21.875 21.875V9.5L17.375 5H9.5Z" fill="#E2E5E7"/>
<path d="M18.5 9.5H21.875L17.375 5V8.375C17.375 8.99375 17.8812 9.5 18.5 9.5Z" fill="#B0B7BD"/>
<path d="M21.875 12.875L18.5 9.5H21.875V12.875Z" fill="#CAD1D8"/>
<path d="M19.625 19.625C19.625 19.9344 19.3719 20.1875 19.0625 20.1875H6.6875C6.37812 20.1875 6.125 19.9344 6.125 19.625V14C6.125 13.6906 6.37812 13.4375 6.6875 13.4375H19.0625C19.3719 13.4375 19.625 13.6906 19.625 14V19.625Z" fill="#50BEE8"/>
<path d="M8.25484 18.5001C8.10634 18.5001 7.94434 18.4186 7.94434 18.2211V15.6668C7.94434 15.5048 8.10634 15.3878 8.25484 15.3878H9.28477C11.3401 15.3878 11.2946 18.5001 9.32471 18.5001H8.25484V18.5001ZM8.53834 15.9363V17.9511H9.28477C10.4992 17.9511 10.5526 15.9363 9.28477 15.9363H8.53834Z" fill="white"/>
<path d="M13.0163 18.5451C12.1843 18.5811 11.3203 18.0276 11.3203 16.9256C11.3203 15.8192 12.1838 15.2753 13.0163 15.2753C13.8032 15.3152 14.6261 15.8597 14.6261 16.9256C14.6261 17.9921 13.8032 18.5451 13.0163 18.5451ZM12.9668 15.8603C12.4628 15.8603 11.9143 16.2158 11.9143 16.9262C11.9143 17.6327 12.4633 17.9927 12.9668 17.9927C13.4843 17.9927 14.0372 17.6327 14.0372 16.9262C14.0372 16.2152 13.4843 15.8603 12.9668 15.8603Z" fill="white"/>
<path d="M15.1553 16.9211C15.1553 16.0532 15.6998 15.3068 16.7342 15.3068C17.1257 15.3068 17.4362 15.4238 17.7641 15.7073C17.8856 15.8192 17.8991 16.0172 17.7776 16.1432C17.6561 16.2506 17.4716 16.2377 17.3636 16.1297C17.1797 15.9362 16.9907 15.8828 16.7342 15.8828C16.0418 15.8828 15.7093 16.3733 15.7093 16.9217C15.7093 17.4797 16.0373 17.9921 16.7342 17.9921C16.9907 17.9921 17.2292 17.8881 17.4362 17.7041C17.5751 17.5961 17.7686 17.6496 17.8496 17.7581C17.9216 17.8571 17.9571 18.0236 17.8001 18.1806C17.4851 18.4736 17.1077 18.5321 16.7336 18.5321C15.6458 18.5321 15.1553 17.7891 15.1553 16.9211Z" fill="white"/>
<path d="M19.0625 20.1875H8.375V20.75H19.0625C19.3719 20.75 19.625 20.4969 19.625 20.1875V19.625C19.625 19.9344 19.3719 20.1875 19.0625 20.1875Z" fill="#CAD1D8"/>
</svg>
