<svg width="28" height="28" viewBox="0 0 28 28" fill="none" xmlns="http://www.w3.org/2000/svg">
<path d="M9.5 5C8.88125 5 8.375 5.50625 8.375 6.125V21.875C8.375 22.4938 8.88125 23 9.5 23H20.75C21.3688 23 21.875 22.4938 21.875 21.875V9.5L17.375 5H9.5Z" fill="#E2E5E7"/>
<path d="M18.5 9.5H21.875L17.375 5V8.375C17.375 8.99375 17.8812 9.5 18.5 9.5Z" fill="#B0B7BD"/>
<path d="M21.875 12.875L18.5 9.5H21.875V12.875Z" fill="#CAD1D8"/>
<path d="M19.625 19.625C19.625 19.9344 19.3719 20.1875 19.0625 20.1875H6.6875C6.37812 20.1875 6.125 19.9344 6.125 19.625V14C6.125 13.6906 6.37812 13.4375 6.6875 13.4375H19.0625C19.3719 13.4375 19.625 13.6906 19.625 14V19.625Z" fill="#F7B84E"/>
<path d="M9.09931 18.5C8.94181 18.5 8.82031 18.3785 8.82031 18.221V15.6667C8.82031 15.5047 8.94181 15.3877 9.09931 15.3877H10.7137C11.1277 15.3877 11.1187 15.9721 10.7137 15.9721H9.41881V16.6471H10.5523C10.9522 16.6471 10.9522 17.2366 10.5523 17.2366H9.41881V17.9111H10.7908C11.2003 17.9111 11.2312 18.5 10.7908 18.5H9.09931V18.5Z" fill="white"/>
<path d="M11.6963 15.6576C11.6963 15.5091 11.8133 15.3466 12.0023 15.3466H13.0412C13.6262 15.3466 14.1527 15.7381 14.1527 16.489C14.1527 17.2 13.6262 17.5954 13.0412 17.5954H12.2903V18.1894C12.2903 18.388 12.1643 18.4999 12.0023 18.4999C11.8538 18.4999 11.6963 18.388 11.6963 18.1894V15.6576V15.6576ZM12.2903 15.9136V17.0335H13.0412C13.3427 17.0335 13.5812 16.768 13.5812 16.489C13.5812 16.174 13.3427 15.9136 13.0412 15.9136H12.2903Z" fill="white"/>
<path d="M14.6604 16.0621C14.7639 15.1897 16.0813 15.0327 16.7023 15.5097C17.0083 15.7567 16.6843 16.1482 16.4143 15.9502C16.0813 15.7387 15.3259 15.6397 15.2314 16.1071C15.1099 16.8451 17.0663 16.4227 17.0348 17.6186C17.0033 18.761 15.3484 18.788 14.7274 18.275C14.5789 18.1541 14.5834 17.9566 14.6644 17.8346C14.7814 17.7181 14.9113 17.6776 15.0649 17.8031C15.4333 18.0551 16.3828 18.2441 16.4503 17.6045C16.3918 16.9396 14.5209 17.3401 14.6604 16.0621Z" fill="white"/>
<path d="M19.0625 20.1875H8.375V20.75H19.0625C19.3719 20.75 19.625 20.4969 19.625 20.1875V19.625C19.625 19.9344 19.3719 20.1875 19.0625 20.1875Z" fill="#CAD1D8"/>
</svg>
