<svg width="28" height="28" viewBox="0 0 28 28" fill="none" xmlns="http://www.w3.org/2000/svg">
<path d="M9.5 5C8.88125 5 8.375 5.50625 8.375 6.125V21.875C8.375 22.4938 8.88125 23 9.5 23H20.75C21.3688 23 21.875 22.4938 21.875 21.875V9.5L17.375 5H9.5Z" fill="#E2E5E7"/>
<path d="M18.5 9.5H21.875L17.375 5V8.375C17.375 8.99375 17.8812 9.5 18.5 9.5Z" fill="#B0B7BD"/>
<path d="M21.875 12.875L18.5 9.5H21.875V12.875Z" fill="#CAD1D8"/>
<path d="M19.625 19.625C19.625 19.9344 19.3719 20.1875 19.0625 20.1875H6.6875C6.37812 20.1875 6.125 19.9344 6.125 19.625V14C6.125 13.6906 6.37812 13.4375 6.6875 13.4375H19.0625C19.3719 13.4375 19.625 13.6906 19.625 14V19.625Z" fill="#F15642"/>
<path d="M9.36238 15.9725V16.6875H10.5093C10.6713 16.6875 10.8328 16.8495 10.8328 17.0064C10.8328 17.1549 10.6713 17.2764 10.5093 17.2764H9.36238V18.2208C9.36238 18.3783 9.24987 18.4993 9.09294 18.4993C8.89494 18.4993 8.77344 18.3783 8.77344 18.2208V15.666C8.77344 15.5045 8.8955 15.387 9.09294 15.387H10.6719C10.8699 15.387 10.9869 15.5045 10.9869 15.666C10.9869 15.81 10.8699 15.972 10.6719 15.972H9.36238V15.9725Z" fill="white"/>
<path d="M11.5332 15.6577C11.5332 15.5092 11.6592 15.3832 11.8167 15.3832C11.9607 15.3832 12.0822 15.5097 12.0822 15.6577V17.9111H13.3056C13.7461 17.9111 13.7556 18.5 13.3056 18.5H11.8173C11.6598 18.5 11.5338 18.3881 11.5338 18.2261V15.6577H11.5332V15.6577Z" fill="white"/>
<path d="M14.2191 18.4999C14.0751 18.4189 13.9851 18.2569 14.0751 18.0679L15.3655 15.5457C15.487 15.3072 15.811 15.2982 15.9235 15.5457L17.1913 18.0679C17.3758 18.4189 16.8313 18.6973 16.6699 18.3469L16.4713 17.9515H14.812L14.619 18.3475C14.547 18.4999 14.3805 18.532 14.2191 18.4999ZM16.1524 17.358L15.6445 16.2465L15.0915 17.358H16.1524Z" fill="white"/>
<path d="M19.0625 20.1875H8.375V20.75H19.0625C19.3719 20.75 19.625 20.4969 19.625 20.1875V19.625C19.625 19.9344 19.3719 20.1875 19.0625 20.1875Z" fill="#CAD1D8"/>
</svg>
