<svg width="28" height="28" viewBox="0 0 28 28" fill="none" xmlns="http://www.w3.org/2000/svg">
<path d="M9.5 5C8.88125 5 8.375 5.50625 8.375 6.125V21.875C8.375 22.4938 8.88125 23 9.5 23H20.75C21.3688 23 21.875 22.4938 21.875 21.875V9.5L17.375 5H9.5Z" fill="#E2E5E7"/>
<path d="M18.5 9.5H21.875L17.375 5V8.375C17.375 8.99375 17.8812 9.5 18.5 9.5Z" fill="#B0B7BD"/>
<path d="M21.875 12.875L18.5 9.5H21.875V12.875Z" fill="#CAD1D8"/>
<path d="M19.625 19.625C19.625 19.9344 19.3719 20.1875 19.0625 20.1875H6.6875C6.37812 20.1875 6.125 19.9344 6.125 19.625V14C6.125 13.6906 6.37812 13.4375 6.6875 13.4375H19.0625C19.3719 13.4375 19.625 13.6906 19.625 14V19.625Z" fill="#F7B84E"/>
<path d="M9.68701 15.9721V16.687H10.834C10.996 16.687 11.158 16.849 11.158 17.0065C11.158 17.155 10.996 17.276 10.834 17.276H9.68701V18.2204C9.68701 18.3779 9.57507 18.4994 9.41757 18.4994C9.21957 18.4994 9.09863 18.3779 9.09863 18.2204V15.6661C9.09863 15.5041 9.22013 15.3871 9.41757 15.3871H10.9965C11.1945 15.3871 11.3115 15.5041 11.3115 15.6661C11.3115 15.8101 11.1945 15.9715 10.9965 15.9715H9.68701V15.9721Z" fill="white"/>
<path d="M11.8584 15.6577C11.8584 15.5092 11.9844 15.3832 12.1419 15.3832C12.2859 15.3832 12.4074 15.5097 12.4074 15.6577V17.9111H13.6308C14.0713 17.9111 14.0808 18.5 13.6308 18.5H12.1425C11.985 18.5 11.859 18.3881 11.859 18.2255V15.6577H11.8584Z" fill="white"/>
<path d="M15.0857 18.298L13.8983 15.8107C13.7228 15.4552 14.2538 15.1632 14.4512 15.5362L14.8517 16.4401L15.3687 17.6275L15.8766 16.4401L16.2771 15.5362C16.4571 15.1947 16.9786 15.4102 16.8261 15.7837L15.6792 18.298C15.5757 18.5815 15.2562 18.6485 15.0857 18.298Z" fill="white"/>
<path d="M19.0625 20.1875H8.375V20.75H19.0625C19.3719 20.75 19.625 20.4969 19.625 20.1875V19.625C19.625 19.9344 19.3719 20.1875 19.0625 20.1875Z" fill="#CAD1D8"/>
</svg>
