<svg width="28" height="28" viewBox="0 0 28 28" fill="none" xmlns="http://www.w3.org/2000/svg">
<path d="M9.5 5C8.88125 5 8.375 5.50625 8.375 6.125V21.875C8.375 22.4938 8.88125 23 9.5 23H20.75C21.3688 23 21.875 22.4938 21.875 21.875V9.5L17.375 5H9.5Z" fill="#E2E5E7"/>
<path d="M18.5 9.5H21.875L17.375 5V8.375C17.375 8.99375 17.8812 9.5 18.5 9.5Z" fill="#B0B7BD"/>
<path d="M21.875 12.875L18.5 9.5H21.875V12.875Z" fill="#CAD1D8"/>
<path d="M19.625 19.625C19.625 19.9344 19.3719 20.1875 19.0625 20.1875H6.6875C6.37812 20.1875 6.125 19.9344 6.125 19.625V14C6.125 13.6906 6.37812 13.4375 6.6875 13.4375H19.0625C19.3719 13.4375 19.625 13.6906 19.625 14V19.625Z" fill="#A066AA"/>
<path d="M12.0261 18.1541C11.7066 18.419 11.3151 18.5321 10.9196 18.5321C9.97462 18.5321 9.30469 17.9921 9.30469 16.9216C9.30469 16.0132 10.0112 15.3073 10.9596 15.3073C11.3151 15.3073 11.706 15.4288 11.985 15.7033C12.2595 15.9727 11.8635 16.3732 11.5941 16.1353C11.4276 15.9727 11.1936 15.8518 10.9596 15.8518C10.4156 15.8518 9.88969 16.2877 9.88969 16.9216C9.88969 17.5876 10.3301 17.9921 10.9196 17.9921C11.1936 17.9921 11.4276 17.9111 11.5941 17.7896V17.2372H10.9196C10.5191 17.2372 10.5596 16.6876 10.9196 16.6876H11.8191C11.9856 16.6876 12.138 16.8142 12.138 16.9537V17.9116C12.138 17.9921 12.1026 18.068 12.0261 18.1541Z" fill="white"/>
<path d="M12.9082 15.6577C12.9082 15.2887 13.5022 15.2752 13.5022 15.6577V18.2249C13.5022 18.5984 12.9082 18.6074 12.9082 18.2249V15.6577V15.6577Z" fill="white"/>
<path d="M14.8839 15.9722V16.6871H16.0302C16.1922 16.6871 16.3542 16.8491 16.3542 17.0066C16.3542 17.1551 16.1922 17.2761 16.0302 17.2761H14.8839V18.2205C14.8839 18.378 14.7714 18.4995 14.6139 18.4995C14.4159 18.4995 14.2949 18.378 14.2949 18.2205V15.6662C14.2949 15.5042 14.4164 15.3872 14.6139 15.3872H16.1928C16.3908 15.3872 16.5078 15.5042 16.5078 15.6662C16.5078 15.8102 16.3908 15.9716 16.1928 15.9716H14.8839V15.9722Z" fill="white"/>
<path d="M19.0625 20.1875H8.375V20.75H19.0625C19.3719 20.75 19.625 20.4969 19.625 20.1875V19.625C19.625 19.9344 19.3719 20.1875 19.0625 20.1875Z" fill="#CAD1D8"/>
</svg>
