<svg width="28" height="28" viewBox="0 0 28 28" fill="none" xmlns="http://www.w3.org/2000/svg">
<path d="M9.5 5C8.88125 5 8.375 5.50625 8.375 6.125V21.875C8.375 22.4938 8.88125 23 9.5 23H20.75C21.3688 23 21.875 22.4938 21.875 21.875V9.5L17.375 5H9.5Z" fill="#E2E5E7"/>
<path d="M18.5 9.5H21.875L17.375 5V8.375C17.375 8.99375 17.8812 9.5 18.5 9.5Z" fill="#B0B7BD"/>
<path d="M21.875 12.875L18.5 9.5H21.875V12.875Z" fill="#CAD1D8"/>
<path d="M19.625 19.625C19.625 19.9344 19.3719 20.1875 19.0625 20.1875H6.6875C6.37812 20.1875 6.125 19.9344 6.125 19.625V14C6.125 13.6906 6.37812 13.4375 6.6875 13.4375H19.0625C19.3719 13.4375 19.625 13.6906 19.625 14V19.625Z" fill="#84BD5A"/>
<path d="M6.95703 18.2211V15.6668C6.95703 15.5048 7.07403 15.3878 7.27597 15.3878C7.43347 15.3878 7.55047 15.5048 7.55047 15.6668V16.6473H9.01634V15.6668C9.01634 15.5048 9.16034 15.3878 9.32234 15.3878C9.47984 15.3878 9.60134 15.5048 9.60134 15.6668V18.2211C9.60134 18.3786 9.47984 18.5001 9.32234 18.5001C9.16034 18.5001 9.01634 18.3786 9.01634 18.2211V17.2368H7.55047V18.2211C7.55047 18.3786 7.43347 18.5001 7.27597 18.5001C7.07403 18.5001 6.95703 18.3786 6.95703 18.2211Z" fill="white"/>
<path d="M11.0737 15.9502H10.2868C9.89529 15.9502 9.89529 15.3748 10.2868 15.3748H12.4136C12.8141 15.3748 12.8141 15.9502 12.4136 15.9502H11.6672V18.221C11.6672 18.612 11.0732 18.6215 11.0732 18.221V15.9502H11.0737Z" fill="white"/>
<path d="M13.7428 16.5257V18.1896C13.7428 18.3881 13.5808 18.5001 13.4194 18.5001C13.2754 18.5001 13.1494 18.3881 13.1494 18.1896V15.6577C13.1494 15.4237 13.348 15.3467 13.4194 15.3467C13.5494 15.3467 13.6258 15.4237 13.7023 15.5092L14.6923 16.8446L15.7172 15.4592C15.8663 15.2752 16.2302 15.3467 16.2302 15.6577V18.1896C16.2302 18.3881 16.1037 18.5001 15.9602 18.5001C15.7988 18.5001 15.6722 18.3881 15.6722 18.1896V16.5257L14.9258 17.4701C14.7643 17.6687 14.5618 17.6687 14.4133 17.4701L13.7428 16.5257Z" fill="white"/>
<path d="M16.8564 15.6577C16.8564 15.5092 16.9824 15.3832 17.1399 15.3832C17.2839 15.3832 17.4054 15.5097 17.4054 15.6577V17.9111H18.6289C19.0693 17.9111 19.0789 18.5 18.6289 18.5H17.1405C16.983 18.5 16.857 18.3881 16.857 18.2255V15.6577H16.8564Z" fill="white"/>
<path d="M19.0625 20.1875H8.375V20.75H19.0625C19.3719 20.75 19.625 20.4969 19.625 20.1875V19.625C19.625 19.9344 19.3719 20.1875 19.0625 20.1875Z" fill="#CAD1D8"/>
</svg>
