<svg width="21" height="21" viewBox="0 0 21 21" fill="none" xmlns="http://www.w3.org/2000/svg">
<path d="M2.43747 1.05057C3.50497 0.453071 4.86622 0.313071 6.16747 0.643071C6.80122 0.803071 7.34247 1.21432 7.66747 1.78057L8.78997 3.73807C9.19005 4.43594 9.3056 5.26121 9.11258 6.04212C8.91957 6.82304 8.43285 7.49945 7.75372 7.93057L6.76622 8.55807C6.35747 8.81682 6.20747 9.21307 6.30122 9.52682C6.63622 10.6493 7.37747 11.8943 8.19247 12.7468C8.43497 13.0018 8.87997 13.0618 9.31497 12.8081L9.86122 12.4893C10.2196 12.2804 10.6161 12.1449 11.0274 12.0908C11.4387 12.0368 11.8567 12.0651 12.257 12.1742C12.6572 12.2834 13.0318 12.4711 13.3587 12.7265C13.6856 12.9819 13.9585 13.2999 14.1612 13.6618L15.1675 15.4556C15.4962 16.0431 15.55 16.7443 15.3175 17.3756C14.8537 18.6293 13.96 19.6406 12.8612 20.1468C11.745 20.6606 10.4387 20.6393 9.25622 19.8506C7.38372 18.6031 5.12747 16.5031 3.08372 13.0006C1.01372 9.45057 0.49247 6.42932 0.55122 4.17682C0.58872 2.73557 1.35122 1.65807 2.43747 1.05057ZM13.9275 0.575571C13.7826 0.495012 13.6117 0.475303 13.4522 0.520781C13.2928 0.566258 13.158 0.673197 13.0775 0.818071C12.9969 0.962946 12.9772 1.13389 13.0227 1.29329C13.0682 1.4527 13.1751 1.58751 13.32 1.66807L13.8 1.93557C15.2995 2.76858 16.575 3.95226 17.5176 5.38545C18.4601 6.81865 19.0416 8.45874 19.2125 10.1656L19.2525 10.5593C19.2572 10.6436 19.2789 10.726 19.3164 10.8017C19.3538 10.8773 19.4062 10.9446 19.4704 10.9995C19.5345 11.0543 19.6091 11.0956 19.6897 11.1208C19.7702 11.146 19.8551 11.1547 19.9391 11.1462C20.023 11.1378 20.1044 11.1124 20.1784 11.0717C20.2523 11.0309 20.3171 10.9756 20.3691 10.909C20.421 10.8425 20.459 10.7662 20.4806 10.6846C20.5022 10.603 20.5071 10.5178 20.495 10.4343L20.4562 10.0418C20.2655 8.13381 19.6156 6.30036 18.562 4.69822C17.5084 3.09608 16.0825 1.77291 14.4062 0.841821L13.9275 0.575571ZM12.4625 3.92557C12.5479 3.78354 12.6862 3.68123 12.847 3.64114C13.0078 3.60106 13.1779 3.62648 13.32 3.71182L13.475 3.80432C14.484 4.40926 15.3496 5.2261 16.0119 6.19838C16.6743 7.17065 17.1176 8.27517 17.3112 9.43557L17.3662 9.76932C17.3824 9.8514 17.382 9.93589 17.3649 10.0178C17.3479 10.0997 17.3146 10.1774 17.2669 10.2461C17.2193 10.3149 17.1584 10.3735 17.0877 10.4182C17.0171 10.463 16.9381 10.4932 16.8556 10.5069C16.7731 10.5207 16.6886 10.5177 16.6073 10.4982C16.5259 10.4786 16.4493 10.443 16.382 10.3933C16.3147 10.3437 16.258 10.281 16.2154 10.209C16.1727 10.137 16.145 10.0572 16.1337 9.97432L16.0775 9.64182C15.9141 8.6599 15.5394 7.72517 14.9793 6.90225C14.4193 6.07933 13.6872 5.38783 12.8337 4.87557L12.6787 4.78307C12.6083 4.74089 12.5469 4.68526 12.4979 4.61933C12.449 4.55341 12.4135 4.47849 12.3936 4.39886C12.3736 4.31923 12.3695 4.23645 12.3816 4.15524C12.3936 4.07403 12.4203 3.99599 12.4625 3.92557Z" fill="#757FEF"/>
</svg>
