<svg width="28" height="28" viewBox="0 0 28 28" fill="none" xmlns="http://www.w3.org/2000/svg">
<path d="M9.5 5C8.88125 5 8.375 5.50625 8.375 6.125V21.875C8.375 22.4943 8.88125 23 9.5 23H20.75C21.3688 23 21.875 22.4943 21.875 21.875V9.5L17.375 5H9.5Z" fill="#E2E5E7"/>
<path d="M18.5 9.5H21.875L17.375 5V8.375C17.375 8.99375 17.8812 9.5 18.5 9.5Z" fill="#B0B7BD"/>
<path d="M21.875 12.875L18.5 9.5H21.875V12.875Z" fill="#CAD1D8"/>
<path d="M19.625 19.625C19.625 19.9344 19.3719 20.1875 19.0625 20.1875H6.6875C6.37812 20.1875 6.125 19.9344 6.125 19.625V14C6.125 13.6906 6.37812 13.4375 6.6875 13.4375H19.0625C19.3719 13.4375 19.625 13.6906 19.625 14V19.625Z" fill="#A066AA"/>
<path d="M7.33398 15.6576C7.33398 15.2886 7.92742 15.2751 7.92742 15.6576V18.2254C7.92742 18.5983 7.33398 18.6079 7.33398 18.2254V15.6576Z" fill="white"/>
<path d="M8.72461 15.7027C8.72461 15.5407 8.76061 15.3832 8.99405 15.3832C9.15605 15.3832 9.19205 15.4237 9.31355 15.5407L10.8019 17.4025V15.6577C10.8019 15.5092 10.9319 15.3472 11.0854 15.3472C11.2469 15.3472 11.4044 15.5092 11.4044 15.6577V18.1895C11.4044 18.388 11.2829 18.464 11.1659 18.5C11.0089 18.5 10.9319 18.4645 10.8019 18.343L9.31355 16.4536V18.1895C9.31355 18.388 9.19205 18.5 9.03005 18.5C8.86805 18.5 8.72461 18.388 8.72461 18.1895V15.7027V15.7027Z" fill="white"/>
<path d="M12.496 18.5C12.3475 18.5 12.1855 18.419 12.1855 18.2216V15.6667C12.1855 15.5047 12.3475 15.3877 12.496 15.3877H13.526C15.5814 15.3877 15.5364 18.5 13.5665 18.5H12.496V18.5ZM12.7795 15.9361V17.951H13.526C14.7404 17.951 14.7944 15.9361 13.526 15.9361H12.7795Z" fill="white"/>
<path d="M15.9892 18.5C15.8407 18.5 15.6787 18.419 15.6787 18.2216V15.6667C15.6787 15.5047 15.8407 15.3877 15.9892 15.3877H17.0191C19.0745 15.3877 19.0295 18.5 17.0596 18.5H15.9892V18.5ZM16.2727 15.9361V17.951H17.0191C18.2336 17.951 18.2876 15.9361 17.0191 15.9361H16.2727Z" fill="white"/>
<path d="M19.0625 20.1875H8.375V20.75H19.0625C19.3719 20.75 19.625 20.4969 19.625 20.1875V19.625C19.625 19.9344 19.3719 20.1875 19.0625 20.1875Z" fill="#CAD1D8"/>
</svg>
