<svg width="28" height="28" viewBox="0 0 28 28" fill="none" xmlns="http://www.w3.org/2000/svg">
<path d="M9.5 5C8.88125 5 8.375 5.50625 8.375 6.125V21.875C8.375 22.4938 8.88125 23 9.5 23H20.75C21.3688 23 21.875 22.4938 21.875 21.875V9.5L17.375 5H9.5Z" fill="#E2E5E7"/>
<path d="M18.5 9.5H21.875L17.375 5V8.375C17.375 8.99375 17.8812 9.5 18.5 9.5Z" fill="#B0B7BD"/>
<path d="M21.875 12.875L18.5 9.5H21.875V12.875Z" fill="#CAD1D8"/>
<path d="M19.625 19.625C19.625 19.9344 19.3719 20.1875 19.0625 20.1875H6.6875C6.37812 20.1875 6.125 19.9344 6.125 19.625V14C6.125 13.6906 6.37812 13.4375 6.6875 13.4375H19.0625C19.3719 13.4375 19.625 13.6906 19.625 14V19.625Z" fill="#50BEE8"/>
<path d="M9.20215 15.6576C9.20215 15.2886 9.79615 15.2751 9.79615 15.6576V18.2248C9.79615 18.5983 9.20215 18.6073 9.20215 18.2248V15.6576Z" fill="white"/>
<path d="M10.5063 16.0621C10.6098 15.1897 11.9272 15.0327 12.5482 15.5097C12.8542 15.7567 12.5302 16.1482 12.2602 15.9502C11.9272 15.7387 11.1718 15.6397 11.0773 16.1071C10.9558 16.8451 12.9121 16.4227 12.8806 17.6186C12.8491 18.761 11.1943 18.788 10.5733 18.275C10.4242 18.1541 10.4293 17.9566 10.5103 17.8346C10.6273 17.7181 10.7572 17.6776 10.9108 17.8031C11.2792 18.0551 12.2287 18.2441 12.2956 17.6045C12.2377 16.9396 10.3668 17.3401 10.5063 16.0621Z" fill="white"/>
<path d="M15.0485 18.545C14.2165 18.581 13.3525 18.0275 13.3525 16.9255C13.3525 15.8191 14.216 15.2751 15.0485 15.2751C15.8354 15.3151 16.6583 15.8596 16.6583 16.9255C16.6589 17.992 15.836 18.545 15.0485 18.545ZM14.999 15.8601C14.495 15.8601 13.9465 16.2156 13.9465 16.9261C13.9465 17.6326 14.4955 17.9926 14.999 17.9926C15.5165 17.9926 16.0694 17.6326 16.0694 16.9261C16.07 16.2151 15.5165 15.8601 14.999 15.8601Z" fill="white"/>
<path d="M19.0625 20.1875H8.375V20.75H19.0625C19.3719 20.75 19.625 20.4969 19.625 20.1875V19.625C19.625 19.9344 19.3719 20.1875 19.0625 20.1875Z" fill="#CAD1D8"/>
</svg>
