<svg width="28" height="28" viewBox="0 0 28 28" fill="none" xmlns="http://www.w3.org/2000/svg">
<path d="M9.5 5C8.88125 5 8.375 5.50625 8.375 6.125V21.875C8.375 22.4938 8.88125 23 9.5 23H20.75C21.3688 23 21.875 22.4938 21.875 21.875V9.5L17.375 5H9.5Z" fill="#E2E5E7"/>
<path d="M18.5 9.5H21.875L17.375 5V8.375C17.375 8.99375 17.8812 9.5 18.5 9.5Z" fill="#B0B7BD"/>
<path d="M21.875 12.875L18.5 9.5H21.875V12.875Z" fill="#CAD1D8"/>
<path d="M19.625 19.625C19.625 19.9344 19.3719 20.1875 19.0625 20.1875H6.6875C6.37812 20.1875 6.125 19.9344 6.125 19.625V14C6.125 13.6906 6.37812 13.4375 6.6875 13.4375H19.0625C19.3719 13.4375 19.625 13.6906 19.625 14V19.625Z" fill="#50BEE8"/>
<path d="M9.9909 15.6578C9.9909 15.2798 10.5849 15.2798 10.5849 15.6578V17.4341C10.5849 18.1406 10.2474 18.5681 9.46946 18.5681C9.08696 18.5681 8.76802 18.4641 8.48902 18.1046C8.25953 17.8301 8.69152 17.4347 8.92552 17.7221C9.11452 17.9561 9.31702 18.0101 9.51446 18.0011C9.7659 17.9921 9.98696 17.8791 9.99146 17.4341V15.6578H9.9909Z" fill="white"/>
<path d="M11.375 15.6578C11.375 15.5093 11.492 15.3473 11.681 15.3473H12.7199C13.3049 15.3473 13.8314 15.7388 13.8314 16.4892C13.8314 17.2002 13.3049 17.5962 12.7199 17.5962H11.969V18.1902C11.969 18.3882 11.843 18.5001 11.681 18.5001C11.5325 18.5001 11.375 18.3882 11.375 18.1902V15.6578ZM11.969 15.9137V17.0342H12.7199C13.0214 17.0342 13.2599 16.7682 13.2599 16.4892C13.2599 16.1747 13.0214 15.9137 12.7199 15.9137H11.969Z" fill="white"/>
<path d="M17.0436 18.1541C16.7241 18.4196 16.3326 18.5321 15.9372 18.5321C14.9922 18.5321 14.3223 17.9927 14.3223 16.9217C14.3223 16.0138 15.0288 15.3079 15.9771 15.3079C16.3326 15.3079 16.7236 15.4288 17.0026 15.7033C17.2765 15.9727 16.8811 16.3732 16.6116 16.1353C16.4451 15.9733 16.2111 15.8518 15.9771 15.8518C15.4332 15.8518 14.9073 16.2877 14.9073 16.9217C14.9073 17.5877 15.3477 17.9927 15.9372 17.9927C16.2111 17.9927 16.4451 17.9111 16.6116 17.7902V17.2372H15.9372C15.5367 17.2372 15.5772 16.6882 15.9372 16.6882H16.8366C17.0031 16.6882 17.1556 16.8142 17.1556 16.9537V17.9117C17.1556 17.9927 17.1201 18.068 17.0436 18.1541Z" fill="white"/>
<path d="M19.0625 20.1875H8.375V20.75H19.0625C19.3719 20.75 19.625 20.4969 19.625 20.1875V19.625C19.625 19.9344 19.3719 20.1875 19.0625 20.1875Z" fill="#CAD1D8"/>
</svg>
