<svg width="28" height="28" viewBox="0 0 28 28" fill="none" xmlns="http://www.w3.org/2000/svg">
<path d="M9.5 5C8.88125 5 8.375 5.50625 8.375 6.125V21.875C8.375 22.4938 8.88125 23 9.5 23H20.75C21.3688 23 21.875 22.4938 21.875 21.875V9.5L17.375 5H9.5Z" fill="#E2E5E7"/>
<path d="M18.5 9.5H21.875L17.375 5V8.375C17.375 8.99375 17.8812 9.5 18.5 9.5Z" fill="#B0B7BD"/>
<path d="M21.875 12.875L18.5 9.5H21.875V12.875Z" fill="#CAD1D8"/>
<path d="M19.625 19.625C19.625 19.9344 19.3719 20.1875 19.0625 20.1875H6.6875C6.37812 20.1875 6.125 19.9344 6.125 19.625V14C6.125 13.6906 6.37812 13.4375 6.6875 13.4375H19.0625C19.3719 13.4375 19.625 13.6906 19.625 14V19.625Z" fill="#576D7E"/>
<path d="M11.8117 15.6576C11.8117 15.2796 12.4057 15.2796 12.4057 15.6576V17.434C12.4057 18.14 12.0682 18.5675 11.2908 18.5675C10.9083 18.5675 10.5888 18.4634 10.3104 18.1045C10.0809 17.83 10.5123 17.4346 10.7463 17.722C10.9353 17.956 11.1372 18.01 11.3352 18.0005C11.5872 17.9915 11.8077 17.879 11.8122 17.434V15.6576H11.8117Z" fill="white"/>
<path d="M13.096 16.0621C13.1995 15.1897 14.5169 15.0327 15.1379 15.5097C15.4439 15.7567 15.1199 16.1482 14.8499 15.9502C14.5169 15.7387 13.7614 15.6397 13.6669 16.1071C13.5454 16.8451 15.5018 16.4227 15.4703 17.6186C15.4388 18.761 13.7839 18.788 13.1629 18.275C13.0144 18.1541 13.0189 17.9566 13.0999 17.8346C13.2169 17.7181 13.3469 17.6776 13.5004 17.8031C13.8689 18.0551 14.8184 18.2441 14.8859 17.6045C14.8274 16.9396 12.9565 17.3401 13.096 16.0621Z" fill="white"/>
<path d="M19.0625 20.1875H8.375V20.75H19.0625C19.3719 20.75 19.625 20.4969 19.625 20.1875V19.625C19.625 19.9344 19.3719 20.1875 19.0625 20.1875Z" fill="#CAD1D8"/>
</svg>
