<svg width="20" height="10" viewBox="0 0 20 10" fill="none" xmlns="http://www.w3.org/2000/svg">
<path d="M14.1668 6.66667H10.549C9.86258 8.60867 8.01053 10 5.8335 10C3.07207 10 0.833496 7.76142 0.833496 5C0.833496 2.23857 3.07207 0 5.8335 0C8.01053 0 9.86258 1.39135 10.549 3.33333H19.1668V6.66667H17.5002V10H14.1668V6.66667ZM5.8335 6.66667C6.75397 6.66667 7.50016 5.9205 7.50016 5C7.50016 4.0795 6.75397 3.33333 5.8335 3.33333C4.91302 3.33333 4.16683 4.0795 4.16683 5C4.16683 5.9205 4.91302 6.66667 5.8335 6.66667Z" fill="#5B5B98"/>
</svg>
