<svg width="18" height="18" viewBox="0 0 18 18" fill="none" xmlns="http://www.w3.org/2000/svg">
<path d="M4.22058 2.17248L5.17643 3.53798C3.45713 4.74372 2.33317 6.74061 2.33317 9C2.33317 12.6819 5.31794 15.6667 8.99984 15.6667C12.6818 15.6667 15.6665 12.6819 15.6665 9C15.6665 6.74061 14.5425 4.74372 12.8233 3.53798L13.7791 2.17248C15.9283 3.67966 17.3332 6.17576 17.3332 9C17.3332 13.6023 13.6022 17.3333 8.99984 17.3333C4.39746 17.3333 0.666504 13.6023 0.666504 9C0.666504 6.17576 2.07145 3.67966 4.22058 2.17248ZM8.1665 9V0.666666H9.83317V9H8.1665Z" fill="#5B5B98"/>
</svg>
