<svg width="28" height="28" viewBox="0 0 28 28" fill="none" xmlns="http://www.w3.org/2000/svg">
<path d="M9.5 5C8.88125 5 8.375 5.50625 8.375 6.125V21.875C8.375 22.4938 8.88125 23 9.5 23H20.75C21.3688 23 21.875 22.4938 21.875 21.875V9.5L17.375 5H9.5Z" fill="#E2E5E7"/>
<path d="M18.5 9.5H21.875L17.375 5V8.375C17.375 8.99375 17.8812 9.5 18.5 9.5Z" fill="#B0B7BD"/>
<path d="M21.875 12.875L18.5 9.5H21.875V12.875Z" fill="#CAD1D8"/>
<path d="M19.625 19.625C19.625 19.9344 19.3719 20.1875 19.0625 20.1875H6.6875C6.37812 20.1875 6.125 19.9344 6.125 19.625V14C6.125 13.6906 6.37812 13.4375 6.6875 13.4375H19.0625C19.3719 13.4375 19.625 13.6906 19.625 14V19.625Z" fill="#A066AA"/>
<path d="M8.76629 16.5257V18.1896C8.76629 18.3881 8.60429 18.5001 8.44229 18.5001C8.29829 18.5001 8.17285 18.3881 8.17285 18.1896V15.6577C8.17285 15.4237 8.37085 15.3467 8.44229 15.3467C8.57279 15.3467 8.64929 15.4237 8.72579 15.5092L9.71523 16.8446L10.7407 15.4592C10.8892 15.2752 11.2531 15.3467 11.2531 15.6577V18.1896C11.2531 18.3881 11.1277 18.5001 10.9837 18.5001C10.8217 18.5001 10.6957 18.3881 10.6957 18.1896V16.5257L9.94923 17.4701C9.78723 17.6687 9.58529 17.6687 9.43623 17.4701L8.76629 16.5257Z" fill="white"/>
<path d="M12.0527 15.6577C12.0527 15.2887 12.6467 15.2752 12.6467 15.6577V18.2249C12.6467 18.5984 12.0527 18.6074 12.0527 18.2249V15.6577V15.6577Z" fill="white"/>
<path d="M13.7519 18.5001C13.6034 18.5001 13.4414 18.4186 13.4414 18.2211V15.6668C13.4414 15.5048 13.6034 15.3878 13.7519 15.3878H14.7818C16.8372 15.3878 16.7922 18.5001 14.8223 18.5001H13.7519V18.5001ZM14.0348 15.9363V17.9511H14.7813C15.9957 17.9511 16.0497 15.9363 14.7813 15.9363H14.0348Z" fill="white"/>
<path d="M16.9512 15.6577C16.9512 15.2887 17.5452 15.2752 17.5452 15.6577V18.2249C17.5452 18.5984 16.9512 18.6074 16.9512 18.2249V15.6577Z" fill="white"/>
<path d="M19.0625 20.1875H8.375V20.75H19.0625C19.3719 20.75 19.625 20.4969 19.625 20.1875V19.625C19.625 19.9344 19.3719 20.1875 19.0625 20.1875Z" fill="#CAD1D8"/>
</svg>
