<svg width="28" height="28" viewBox="0 0 28 28" fill="none" xmlns="http://www.w3.org/2000/svg">
<path d="M9.5 5C8.88125 5 8.375 5.50625 8.375 6.125V21.875C8.375 22.4938 8.88125 23 9.5 23H20.75C21.3688 23 21.875 22.4938 21.875 21.875V9.5L17.375 5H9.5Z" fill="#E2E5E7"/>
<path d="M18.5 9.5H21.875L17.375 5V8.375C17.375 8.99375 17.8812 9.5 18.5 9.5Z" fill="#B0B7BD"/>
<path d="M21.875 12.875L18.5 9.5H21.875V12.875Z" fill="#CAD1D8"/>
<path d="M19.625 19.625C19.625 19.9344 19.3719 20.1875 19.0625 20.1875H6.6875C6.37812 20.1875 6.125 19.9344 6.125 19.625V14C6.125 13.6906 6.37812 13.4375 6.6875 13.4375H19.0625C19.3719 13.4375 19.625 13.6906 19.625 14V19.625Z" fill="#50BEE8"/>
<path d="M8.40748 16.5257V18.1896C8.40748 18.3881 8.24548 18.5001 8.08348 18.5001C7.93948 18.5001 7.81348 18.3881 7.81348 18.1896V15.6577C7.81348 15.4237 8.01148 15.3467 8.08348 15.3467C8.21341 15.3467 8.28991 15.4237 8.36698 15.5092L9.35585 16.8446L10.3813 15.4592C10.5304 15.2752 10.8943 15.3467 10.8943 15.6577V18.1896C10.8943 18.3881 10.7689 18.5001 10.6249 18.5001C10.4629 18.5001 10.3369 18.3881 10.3369 18.1896V16.5257L9.58985 17.4701C9.42841 17.6687 9.22591 17.6687 9.07741 17.4701L8.40748 16.5257Z" fill="white"/>
<path d="M13.2301 18.5451C12.3982 18.5811 11.5342 18.0276 11.5342 16.9256C11.5342 15.8192 12.3976 15.2753 13.2301 15.2753C14.0171 15.3152 14.84 15.8597 14.84 16.9256C14.84 17.9921 14.0171 18.5451 13.2301 18.5451ZM13.1806 15.8603C12.6766 15.8603 12.1282 16.2158 12.1282 16.9262C12.1282 17.6327 12.6772 17.9927 13.1806 17.9927C13.6981 17.9927 14.2511 17.6327 14.2511 16.9262C14.2511 16.2152 13.6981 15.8603 13.1806 15.8603Z" fill="white"/>
<path d="M16.3787 18.2982L15.1913 15.8108C15.0158 15.4553 15.5468 15.1633 15.7442 15.5363L16.1447 16.4402L16.6617 17.6277L17.1696 16.4402L17.5701 15.5363C17.7501 15.1948 18.2715 15.4103 18.1191 15.7838L16.9722 18.2982C16.8687 18.5817 16.5492 18.6486 16.3787 18.2982Z" fill="white"/>
<path d="M19.0625 20.1875H8.375V20.75H19.0625C19.3719 20.75 19.625 20.4969 19.625 20.1875V19.625C19.625 19.9344 19.3719 20.1875 19.0625 20.1875Z" fill="#CAD1D8"/>
</svg>
