<svg width="28" height="28" viewBox="0 0 28 28" fill="none" xmlns="http://www.w3.org/2000/svg">
<path d="M9.5 5C8.88125 5 8.375 5.50625 8.375 6.125V21.875C8.375 22.4943 8.88125 23 9.5 23H20.75C21.3688 23 21.875 22.4943 21.875 21.875V9.5L17.375 5H9.5Z" fill="#E2E5E7"/>
<path d="M18.5 9.5H21.875L17.375 5V8.375C17.375 8.99375 17.8812 9.5 18.5 9.5Z" fill="#B0B7BD"/>
<path d="M21.875 12.875L18.5 9.5H21.875V12.875Z" fill="#CAD1D8"/>
<path d="M19.625 19.625C19.625 19.9344 19.3719 20.1875 19.0625 20.1875H6.6875C6.37812 20.1875 6.125 19.9344 6.125 19.625V14C6.125 13.6906 6.37812 13.4375 6.6875 13.4375H19.0625C19.3719 13.4375 19.625 13.6906 19.625 14V19.625Z" fill="#50BEE8"/>
<path d="M9.1198 16.5256V18.19C9.1198 18.388 8.95837 18.5005 8.7958 18.5005C8.6518 18.5005 8.52637 18.388 8.52637 18.19V15.6577C8.52637 15.4242 8.72437 15.3472 8.7958 15.3472C8.9263 15.3472 9.0028 15.4242 9.0793 15.5092L10.0693 16.8451L11.0942 15.4597C11.2432 15.2752 11.6072 15.3472 11.6072 15.6577V18.19C11.6072 18.388 11.4806 18.5005 11.3372 18.5005C11.1757 18.5005 11.0492 18.388 11.0492 18.19V16.5256L10.3027 17.4706C10.1413 17.6686 9.9388 17.6686 9.7903 17.4706L9.1198 16.5256Z" fill="white"/>
<path d="M12.3926 15.6577C12.3926 15.5092 12.5096 15.3472 12.6986 15.3472H13.7375C14.3225 15.3472 14.849 15.7387 14.849 16.4896C14.849 17.2006 14.3225 17.596 13.7375 17.596H12.9866V18.19C12.9866 18.388 12.8606 18.5005 12.6986 18.5005C12.5501 18.5005 12.3926 18.388 12.3926 18.19V15.6577ZM12.986 15.9142V17.0341H13.737C14.0385 17.0341 14.277 16.7686 14.277 16.4896C14.277 16.1746 14.0385 15.9142 13.737 15.9142H12.986Z" fill="white"/>
<path d="M16.3227 15.9502H15.5538C15.1763 15.9502 15.1988 15.3883 15.5538 15.3883H16.9302C17.2041 15.3883 17.3301 15.7033 17.1282 15.9058L16.3818 16.6027C16.9308 16.5622 17.3622 16.9712 17.3622 17.4752C17.3622 18.0281 16.9707 18.5006 16.1478 18.5006C15.7878 18.5006 15.4328 18.3521 15.2258 18.0281C15.0098 17.7092 15.4728 17.4032 15.7158 17.7176C15.8328 17.8706 16.0218 17.9471 16.2237 17.9471C16.4982 17.9471 16.7682 17.8301 16.7682 17.4746C16.7682 17.0072 16.1967 17.0792 15.8868 17.1107C15.5088 17.1827 15.3968 16.7732 15.6173 16.6027L16.3227 15.9502Z" fill="white"/>
<path d="M19.0625 20.1875H8.375V20.75H19.0625C19.3719 20.75 19.625 20.4969 19.625 20.1875V19.625C19.625 19.9344 19.3719 20.1875 19.0625 20.1875Z" fill="#CAD1D8"/>
</svg>
