<svg width="28" height="28" viewBox="0 0 28 28" fill="none" xmlns="http://www.w3.org/2000/svg">
<path d="M9.5 5C8.88125 5 8.375 5.50625 8.375 6.125V21.875C8.375 22.4938 8.88125 23 9.5 23H20.75C21.3688 23 21.875 22.4938 21.875 21.875V9.5L17.375 5H9.5Z" fill="#E2E5E7"/>
<path d="M18.5 9.5H21.875L17.375 5V8.375C17.375 8.99375 17.8812 9.5 18.5 9.5Z" fill="#B0B7BD"/>
<path d="M21.875 12.875L18.5 9.5H21.875V12.875Z" fill="#CAD1D8"/>
<path d="M19.625 19.625C19.625 19.9344 19.3719 20.1875 19.0625 20.1875H6.6875C6.37812 20.1875 6.125 19.9344 6.125 19.625V14C6.125 13.6906 6.37812 13.4375 6.6875 13.4375H19.0625C19.3719 13.4375 19.625 13.6906 19.625 14V19.625Z" fill="#F7B84E"/>
<path d="M8.63543 16.5257V18.1896C8.63543 18.3881 8.47399 18.5001 8.31143 18.5001C8.16743 18.5001 8.04199 18.3881 8.04199 18.1896V15.6577C8.04199 15.4237 8.23999 15.3467 8.31143 15.3467C8.44193 15.3467 8.51843 15.4237 8.59493 15.5092L9.58493 16.8446L10.6098 15.4592C10.7589 15.2752 11.1228 15.3467 11.1228 15.6577V18.1896C11.1228 18.3881 10.9962 18.5001 10.8522 18.5001C10.6908 18.5001 10.5642 18.3881 10.5642 18.1896V16.5257L9.8178 17.4701C9.65637 17.6687 9.45387 17.6687 9.30537 17.4701L8.63543 16.5257Z" fill="white"/>
<path d="M11.9082 15.6577C11.9082 15.5092 12.0252 15.3467 12.2142 15.3467H13.2531C13.8381 15.3467 14.3646 15.7382 14.3646 16.4891C14.3646 17.2001 13.8381 17.5956 13.2531 17.5956H12.5022V18.1896C12.5022 18.3881 12.3762 18.5001 12.2142 18.5001C12.0657 18.5001 11.9082 18.3881 11.9082 18.1896V15.6577V15.6577ZM12.5022 15.9137V17.0336H13.2531C13.5546 17.0336 13.7931 16.7681 13.7931 16.4891C13.7931 16.1741 13.5546 15.9137 13.2531 15.9137H12.5022Z" fill="white"/>
<path d="M17.5759 18.1541C17.2564 18.419 16.8649 18.5321 16.4694 18.5321C15.5244 18.5321 14.8545 17.9921 14.8545 16.9216C14.8545 16.0132 15.561 15.3073 16.5094 15.3073C16.8649 15.3073 17.2558 15.4288 17.5348 15.7033C17.8087 15.9727 17.4133 16.3732 17.1439 16.1353C16.9774 15.9727 16.7434 15.8518 16.5094 15.8518C15.9654 15.8518 15.4395 16.2877 15.4395 16.9216C15.4395 17.5876 15.8799 17.9921 16.4694 17.9921C16.7434 17.9921 16.9774 17.9111 17.1439 17.7896V17.2372H16.4694C16.0689 17.2372 16.1094 16.6876 16.4694 16.6876H17.3689C17.5354 16.6876 17.6878 16.8142 17.6878 16.9537V17.9116C17.6884 17.9921 17.6524 18.068 17.5759 18.1541Z" fill="white"/>
<path d="M19.0625 20.1875H8.375V20.75H19.0625C19.3719 20.75 19.625 20.4969 19.625 20.1875V19.625C19.625 19.9344 19.3719 20.1875 19.0625 20.1875Z" fill="#CAD1D8"/>
</svg>
