<svg width="28" height="28" viewBox="0 0 28 28" fill="none" xmlns="http://www.w3.org/2000/svg">
<path d="M9.5 5C8.88125 5 8.375 5.50625 8.375 6.125V21.875C8.375 22.4938 8.88125 23 9.5 23H20.75C21.3688 23 21.875 22.4938 21.875 21.875V9.5L17.375 5H9.5Z" fill="#E2E5E7"/>
<path d="M18.5 9.5H21.875L17.375 5V8.375C17.375 8.99375 17.8812 9.5 18.5 9.5Z" fill="#B0B7BD"/>
<path d="M21.875 12.875L18.5 9.5H21.875V12.875Z" fill="#CAD1D8"/>
<path d="M19.625 19.625C19.625 19.9344 19.3719 20.1875 19.0625 20.1875H6.6875C6.37812 20.1875 6.125 19.9344 6.125 19.625V14C6.125 13.6906 6.37812 13.4375 6.6875 13.4375H19.0625C19.3719 13.4375 19.625 13.6906 19.625 14V19.625Z" fill="#F15642"/>
<path d="M8.57715 15.6577C8.57715 15.5092 8.69415 15.3472 8.88259 15.3472H9.92152C10.5065 15.3472 11.033 15.7387 11.033 16.489C11.033 17.2 10.5065 17.596 9.92152 17.596H9.17059V18.19C9.17059 18.388 9.04459 18.5 8.88259 18.5C8.73409 18.5 8.57715 18.388 8.57715 18.19V15.6577V15.6577ZM9.17059 15.9136V17.0341H9.92152C10.223 17.0341 10.4615 16.768 10.4615 16.489C10.4615 16.1746 10.223 15.9136 9.92152 15.9136H9.17059Z" fill="white"/>
<path d="M11.914 18.5C11.7655 18.5 11.6035 18.419 11.6035 18.2216V15.6667C11.6035 15.5053 11.7655 15.3877 11.914 15.3877H12.9439C14.9993 15.3877 14.9543 18.5 12.9845 18.5H11.914V18.5ZM12.1975 15.9367V17.9516H12.9439C14.1584 17.9516 14.2124 15.9367 12.9439 15.9367H12.1975V15.9367Z" fill="white"/>
<path d="M15.6831 15.9726V16.6876H16.83C16.992 16.6876 17.154 16.8496 17.154 17.0065C17.154 17.155 16.992 17.2765 16.83 17.2765H15.6831V18.221C15.6831 18.3785 15.5712 18.4994 15.4137 18.4994C15.2157 18.4994 15.0947 18.3785 15.0947 18.221V15.6661C15.0947 15.5046 15.2162 15.3871 15.4137 15.3871H16.9926C17.1906 15.3871 17.3076 15.5046 17.3076 15.6661C17.3076 15.8101 17.1906 15.9721 16.9926 15.9721H15.6831V15.9726Z" fill="white"/>
<path d="M19.0625 20.1875H8.375V20.75H19.0625C19.3719 20.75 19.625 20.4969 19.625 20.1875V19.625C19.625 19.9344 19.3719 20.1875 19.0625 20.1875Z" fill="#CAD1D8"/>
</svg>
