<svg width="28" height="28" viewBox="0 0 28 28" fill="none" xmlns="http://www.w3.org/2000/svg">
<path d="M9.5 5C8.88125 5 8.375 5.50625 8.375 6.125V21.875C8.375 22.4938 8.88125 23 9.5 23H20.75C21.3688 23 21.875 22.4938 21.875 21.875V9.5L17.375 5H9.5Z" fill="#E2E5E7"/>
<path d="M18.5 9.5H21.875L17.375 5V8.375C17.375 8.99375 17.8812 9.5 18.5 9.5Z" fill="#B0B7BD"/>
<path d="M21.875 12.875L18.5 9.5H21.875V12.875Z" fill="#CAD1D8"/>
<path d="M19.625 19.625C19.625 19.9344 19.3719 20.1875 19.0625 20.1875H6.6875C6.37812 20.1875 6.125 19.9344 6.125 19.625V14C6.125 13.6906 6.37812 13.4375 6.6875 13.4375H19.0625C19.3719 13.4375 19.625 13.6906 19.625 14V19.625Z" fill="#576D7E"/>
<path d="M8.61816 15.6577C8.61816 15.5092 8.73516 15.3467 8.92416 15.3467H9.9631C10.5481 15.3467 11.0746 15.7382 11.0746 16.4891C11.0746 17.2001 10.5481 17.5956 9.9631 17.5956H9.2116V18.1896C9.2116 18.3881 9.08616 18.5001 8.92416 18.5001C8.77566 18.5001 8.61816 18.3881 8.61816 18.1896C8.61816 18.1896 8.61816 15.6577 8.61816 15.6577ZM9.2116 15.9137V17.0336H9.96254C10.264 17.0336 10.5025 16.7681 10.5025 16.4891C10.5025 16.1741 10.264 15.9137 9.96254 15.9137H9.2116Z" fill="white"/>
<path d="M11.5566 18.2211V15.6668C11.5566 15.5048 11.6736 15.3878 11.8761 15.3878C12.0331 15.3878 12.1501 15.5048 12.1501 15.6668V16.6473H13.616V15.6668C13.616 15.5048 13.76 15.3878 13.922 15.3878C14.0789 15.3878 14.201 15.5048 14.201 15.6668V18.2211C14.201 18.3786 14.0789 18.5001 13.922 18.5001C13.76 18.5001 13.616 18.3786 13.616 18.2211V17.2368H12.1501V18.2211C12.1501 18.3786 12.0331 18.5001 11.8761 18.5001C11.6736 18.5001 11.5566 18.3786 11.5566 18.2211Z" fill="white"/>
<path d="M14.832 15.6577C14.832 15.5092 14.949 15.3467 15.138 15.3467H16.177C16.762 15.3467 17.2885 15.7382 17.2885 16.4891C17.2885 17.2001 16.762 17.5956 16.177 17.5956H15.426V18.1896C15.426 18.3881 15.3 18.5001 15.138 18.5001C14.9895 18.5001 14.832 18.3881 14.832 18.1896V15.6577ZM15.426 15.9137V17.0336H16.177C16.4785 17.0336 16.717 16.7681 16.717 16.4891C16.717 16.1741 16.4785 15.9137 16.177 15.9137H15.426Z" fill="white"/>
<path d="M19.0625 20.1875H8.375V20.75H19.0625C19.3719 20.75 19.625 20.4969 19.625 20.1875V19.625C19.625 19.9344 19.3719 20.1875 19.0625 20.1875Z" fill="#CAD1D8"/>
</svg>
