<svg width="28" height="28" viewBox="0 0 28 28" fill="none" xmlns="http://www.w3.org/2000/svg">
<path d="M9.5 5C8.88125 5 8.375 5.50625 8.375 6.125V21.875C8.375 22.4938 8.88125 23 9.5 23H20.75C21.3688 23 21.875 22.4938 21.875 21.875V9.5L17.375 5H9.5Z" fill="#E2E5E7"/>
<path d="M18.5 9.5H21.875L17.375 5V8.375C17.375 8.99375 17.8812 9.5 18.5 9.5Z" fill="#B0B7BD"/>
<path d="M21.875 12.875L18.5 9.5H21.875V12.875Z" fill="#CAD1D8"/>
<path d="M19.625 19.625C19.625 19.9344 19.3719 20.1875 19.0625 20.1875H6.6875C6.37812 20.1875 6.125 19.9344 6.125 19.625V14C6.125 13.6906 6.37812 13.4375 6.6875 13.4375H19.0625C19.3719 13.4375 19.625 13.6906 19.625 14V19.625Z" fill="#A066AA"/>
<path d="M8.26367 15.6577C8.26367 15.5092 8.38011 15.3467 8.56911 15.3467H9.60861C10.1931 15.3467 10.7196 15.7382 10.7196 16.4891C10.7196 17.2001 10.1931 17.5956 9.60861 17.5956H8.85655V18.1896C8.85655 18.3881 8.73167 18.5001 8.56911 18.5001C8.42061 18.5001 8.26367 18.3881 8.26367 18.1896C8.26367 18.1896 8.26367 15.6577 8.26367 15.6577ZM8.85655 15.9137V17.0336H9.60805C9.90899 17.0336 10.1475 16.7681 10.1475 16.4891C10.1475 16.1741 9.90899 15.9137 9.60805 15.9137H8.85655Z" fill="white"/>
<path d="M11.2926 15.7027C11.2926 15.5402 11.3286 15.3832 11.5626 15.3832C11.724 15.3832 11.7606 15.4237 11.8815 15.5402L13.3699 17.4026V15.6577C13.3699 15.5092 13.4998 15.3467 13.6534 15.3467C13.8154 15.3467 13.9723 15.5092 13.9723 15.6577V18.1896C13.9723 18.3881 13.8508 18.4635 13.7338 18.5001C13.5769 18.5001 13.4998 18.4641 13.3699 18.3431L11.8815 16.4537V18.1901C11.8815 18.3887 11.76 18.5006 11.598 18.5006C11.436 18.5006 11.292 18.3887 11.292 18.1901V15.7027H11.2926Z" fill="white"/>
<path d="M17.3561 18.1541C17.0366 18.419 16.6451 18.5321 16.2497 18.5321C15.3047 18.5321 14.6348 17.9921 14.6348 16.9216C14.6348 16.0132 15.3413 15.3073 16.2896 15.3073C16.6451 15.3073 17.0361 15.4288 17.3151 15.7033C17.5896 15.9727 17.1936 16.3732 16.9241 16.1353C16.7576 15.9727 16.5236 15.8518 16.2896 15.8518C15.7457 15.8518 15.2198 16.2877 15.2198 16.9216C15.2198 17.5876 15.6602 17.9921 16.2497 17.9921C16.5236 17.9921 16.7576 17.9111 16.9241 17.7896V17.2372H16.2497C15.8492 17.2372 15.8897 16.6876 16.2497 16.6876H17.1491C17.3156 16.6876 17.4681 16.8142 17.4681 16.9537V17.9116C17.4681 17.9921 17.4326 18.068 17.3561 18.1541Z" fill="white"/>
<path d="M19.0625 20.1875H8.375V20.75H19.0625C19.3719 20.75 19.625 20.4969 19.625 20.1875V19.625C19.625 19.9344 19.3719 20.1875 19.0625 20.1875Z" fill="#CAD1D8"/>
</svg>
