<svg width="28" height="28" viewBox="0 0 28 28" fill="none" xmlns="http://www.w3.org/2000/svg">
<path d="M9.5 5C8.88125 5 8.375 5.50625 8.375 6.125V21.875C8.375 22.4938 8.88125 23 9.5 23H20.75C21.3688 23 21.875 22.4938 21.875 21.875V9.5L17.375 5H9.5Z" fill="#E2E5E7"/>
<path d="M18.5 9.5H21.875L17.375 5V8.375C17.375 8.99375 17.8812 9.5 18.5 9.5Z" fill="#B0B7BD"/>
<path d="M21.875 12.875L18.5 9.5H21.875V12.875Z" fill="#CAD1D8"/>
<path d="M19.625 19.625C19.625 19.9344 19.3719 20.1875 19.0625 20.1875H6.6875C6.37812 20.1875 6.125 19.9344 6.125 19.625V14C6.125 13.6906 6.37812 13.4375 6.6875 13.4375H19.0625C19.3719 13.4375 19.625 13.6906 19.625 14V19.625Z" fill="#F15642"/>
<path d="M8.70703 15.6577C8.70703 15.5092 8.82403 15.3472 9.01247 15.3472H10.0514C10.6364 15.3472 11.1629 15.7387 11.1629 16.489C11.1629 17.2 10.6364 17.596 10.0514 17.596H9.30047V18.19C9.30047 18.388 9.17503 18.5 9.01303 18.5C8.86453 18.5 8.70759 18.388 8.70759 18.19V15.6577H8.70703V15.6577ZM9.30047 15.9136V17.0341H10.0514C10.3529 17.0341 10.5914 16.768 10.5914 16.489C10.5914 16.1746 10.3529 15.9136 10.0514 15.9136H9.30047Z" fill="white"/>
<path d="M11.7363 15.6577C11.7363 15.5092 11.8533 15.3472 12.0423 15.3472H13.0813C13.6663 15.3472 14.1928 15.7387 14.1928 16.489C14.1928 17.2 13.6663 17.596 13.0813 17.596H12.3303V18.19C12.3303 18.388 12.2043 18.5 12.0423 18.5C11.8938 18.5 11.7363 18.388 11.7363 18.19V15.6577V15.6577ZM12.3298 15.9136V17.0341H13.0807C13.3822 17.0341 13.6207 16.768 13.6207 16.489C13.6207 16.1746 13.3822 15.9136 13.0807 15.9136H12.3298Z" fill="white"/>
<path d="M15.6054 15.9502H14.819C14.4275 15.9502 14.4275 15.3748 14.819 15.3748H16.9458C17.3463 15.3748 17.3463 15.9502 16.9458 15.9502H16.1994V18.2216C16.1994 18.6125 15.6054 18.6221 15.6054 18.2216V15.9502Z" fill="white"/>
<path d="M19.0625 20.1875H8.375V20.75H19.0625C19.3719 20.75 19.625 20.4969 19.625 20.1875V19.625C19.625 19.9344 19.3719 20.1875 19.0625 20.1875Z" fill="#CAD1D8"/>
</svg>
