<svg width="28" height="28" viewBox="0 0 28 28" fill="none" xmlns="http://www.w3.org/2000/svg">
<path d="M9.375 5C8.75625 5 8.25 5.50625 8.25 6.125V21.875C8.25 22.4938 8.75625 23 9.375 23H20.625C21.2438 23 21.75 22.4938 21.75 21.875V9.5L17.25 5H9.375Z" fill="#E2E5E7"/>
<path d="M18.375 9.5H21.75L17.25 5V8.375C17.25 8.99375 17.7562 9.5 18.375 9.5Z" fill="#B0B7BD"/>
<path d="M21.75 12.875L18.375 9.5H21.75V12.875Z" fill="#CAD1D8"/>
<path d="M19.5 19.625C19.5 19.9344 19.2469 20.1875 18.9375 20.1875H6.5625C6.25312 20.1875 6 19.9344 6 19.625V14C6 13.6906 6.25312 13.4375 6.5625 13.4375H18.9375C19.2469 13.4375 19.5 13.6906 19.5 14V19.625Z" fill="#F7B84E"/>
<path d="M10.1377 15.6576C10.1377 15.5091 10.2547 15.3466 10.4437 15.3466H11.4826C12.0676 15.3466 12.5941 15.7381 12.5941 16.489C12.5941 17.2 12.0676 17.5954 11.4826 17.5954H10.7317V18.1894C10.7317 18.388 10.6057 18.4999 10.4437 18.4999C10.2952 18.4999 10.1377 18.388 10.1377 18.1894V15.6576V15.6576ZM10.7317 15.9136V17.0335H11.4826C11.7841 17.0335 12.0226 16.768 12.0226 16.489C12.0226 16.174 11.7841 15.9136 11.4826 15.9136H10.7317Z" fill="white"/>
<path d="M13.103 16.0621C13.2065 15.1897 14.5239 15.0327 15.1449 15.5097C15.4509 15.7567 15.1269 16.1482 14.8569 15.9502C14.5239 15.7387 13.7684 15.6397 13.6739 16.1071C13.5524 16.8451 15.5088 16.4227 15.4773 17.6186C15.4458 18.761 13.7909 18.788 13.1699 18.275C13.0209 18.1541 13.0259 17.9566 13.1069 17.8346C13.2239 17.7181 13.3539 17.6776 13.5074 17.8031C13.8759 18.0551 14.8254 18.2441 14.8923 17.6045C14.8344 16.9396 12.9635 17.3401 13.103 16.0621Z" fill="white"/>
<path d="M18.9375 20.1875H8.25V20.75H18.9375C19.2469 20.75 19.5 20.4969 19.5 20.1875V19.625C19.5 19.9344 19.2469 20.1875 18.9375 20.1875Z" fill="#CAD1D8"/>
</svg>
