<svg width="28" height="28" viewBox="0 0 28 28" fill="none" xmlns="http://www.w3.org/2000/svg">
<path d="M9.5 5C8.88125 5 8.375 5.50625 8.375 6.125V21.875C8.375 22.4938 8.88125 23 9.5 23H20.75C21.3688 23 21.875 22.4938 21.875 21.875V9.5L17.375 5H9.5Z" fill="#E2E5E7"/>
<path d="M18.5 9.5H21.875L17.375 5V8.375C17.375 8.99375 17.8812 9.5 18.5 9.5Z" fill="#B0B7BD"/>
<path d="M21.875 12.875L18.5 9.5H21.875V12.875Z" fill="#CAD1D8"/>
<path d="M19.625 19.625C19.625 19.9344 19.3719 20.1875 19.0625 20.1875H6.6875C6.37812 20.1875 6.125 19.9344 6.125 19.625V14C6.125 13.6906 6.37812 13.4375 6.6875 13.4375H19.0625C19.3719 13.4375 19.625 13.6906 19.625 14V19.625Z" fill="#50BEE8"/>
<path d="M8.51562 15.6577C8.51562 15.5092 8.63263 15.3467 8.82106 15.3467H9.86C10.445 15.3467 10.9715 15.7382 10.9715 16.4891C10.9715 17.2001 10.445 17.5956 9.86 17.5956H9.10906V18.1896C9.10906 18.3881 8.98306 18.5001 8.82106 18.5001C8.67256 18.5001 8.51562 18.3881 8.51562 18.1896V15.6577V15.6577ZM9.10906 15.9137V17.0336H9.86C10.1615 17.0336 10.4 16.7681 10.4 16.4891C10.4 16.1741 10.1615 15.9137 9.86 15.9137H9.10906Z" fill="white"/>
<path d="M11.48 16.0621C11.5835 15.1897 12.9008 15.0327 13.5218 15.5097C13.8278 15.7567 13.5038 16.1482 13.2338 15.9502C12.9008 15.7387 12.1454 15.6397 12.0509 16.1071C11.9294 16.8451 13.8858 16.4227 13.8543 17.6186C13.8228 18.761 12.1679 18.788 11.5469 18.275C11.3978 18.1541 11.4029 17.9566 11.4839 17.8346C11.6009 17.7181 11.7308 17.6776 11.8844 17.8031C12.2528 18.0551 13.2023 18.2441 13.2693 17.6045C13.2113 16.9396 11.3399 17.3401 11.48 16.0621Z" fill="white"/>
<path d="M14.7822 18.4999C14.6337 18.4999 14.4717 18.4183 14.4717 18.2209V15.6666C14.4717 15.5046 14.6337 15.3876 14.7822 15.3876H15.8121C17.8675 15.3876 17.8225 18.4999 15.8526 18.4999H14.7822ZM15.0657 15.936V17.9509H15.8121C17.0266 17.9509 17.0806 15.936 15.8121 15.936H15.0657Z" fill="white"/>
<path d="M19.0625 20.1875H8.375V20.75H19.0625C19.3719 20.75 19.625 20.4969 19.625 20.1875V19.625C19.625 19.9344 19.3719 20.1875 19.0625 20.1875Z" fill="#CAD1D8"/>
</svg>
