<svg width="28" height="28" viewBox="0 0 28 28" fill="none" xmlns="http://www.w3.org/2000/svg">
<path d="M9.5 5C8.88125 5 8.375 5.50625 8.375 6.125V21.875C8.375 22.4938 8.88125 23 9.5 23H20.75C21.3688 23 21.875 22.4938 21.875 21.875V9.5L17.375 5H9.5Z" fill="#E2E5E7"/>
<path d="M18.5 9.5H21.875L17.375 5V8.375C17.375 8.99375 17.8812 9.5 18.5 9.5Z" fill="#B0B7BD"/>
<path d="M21.875 12.875L18.5 9.5H21.875V12.875Z" fill="#CAD1D8"/>
<path d="M19.625 19.625C19.625 19.9344 19.3719 20.1875 19.0625 20.1875H6.6875C6.37812 20.1875 6.125 19.9344 6.125 19.625V14C6.125 13.6906 6.37812 13.4375 6.6875 13.4375H19.0625C19.3719 13.4375 19.625 13.6906 19.625 14V19.625Z" fill="#576D7E"/>
<path d="M8.33678 18.2074C8.33678 18.5983 7.73828 18.6118 7.73828 18.2164V15.6621C7.73828 15.5046 7.86034 15.3876 8.00828 15.3876H9.20472C10.3466 15.3876 10.5806 16.917 9.62716 17.2989L10.2251 18.0274C10.4591 18.3739 9.99166 18.7063 9.72109 18.3649L9.04216 17.3934H8.33678V18.2074ZM8.33678 16.8759H9.20472C9.78916 16.8759 9.82572 15.9315 9.20472 15.9315H8.33678V16.8759Z" fill="white"/>
<path d="M10.7171 18.5C10.5731 18.4184 10.4831 18.257 10.5731 18.068L11.8635 15.5452C11.985 15.3067 12.309 15.2977 12.4215 15.5452L13.6894 18.068C13.8739 18.4184 13.3294 18.6974 13.168 18.347L12.9694 17.951H11.31L11.1165 18.347C11.0451 18.5 10.8786 18.5321 10.7171 18.5ZM12.651 17.3576L12.1431 16.2466L11.5901 17.3576H12.651Z" fill="white"/>
<path d="M16.9971 17.425L17.667 15.5722C17.802 15.2082 18.3459 15.3787 18.2115 15.7702L17.3211 18.1855C17.2395 18.442 17.1636 18.5185 17.0106 18.5185C16.8486 18.5185 16.7991 18.419 16.7091 18.2575L15.9266 16.4812L15.1796 18.2305C15.0986 18.419 15.0227 18.527 14.8607 18.527C14.7037 18.527 14.6222 18.419 14.5502 18.221L13.6777 15.7702C13.5427 15.3657 14.1137 15.2172 14.2307 15.5722L14.8967 17.425L15.6926 15.5722C15.8001 15.2977 16.0836 15.2842 16.2006 15.5592L16.9971 17.425Z" fill="white"/>
<path d="M19.0625 20.1875H8.375V20.75H19.0625C19.3719 20.75 19.625 20.4969 19.625 20.1875V19.625C19.625 19.9344 19.3719 20.1875 19.0625 20.1875Z" fill="#CAD1D8"/>
</svg>
