<svg width="28" height="28" viewBox="0 0 28 28" fill="none" xmlns="http://www.w3.org/2000/svg">
<path d="M9.5 5C8.88125 5 8.375 5.50625 8.375 6.125V21.875C8.375 22.4938 8.88125 23 9.5 23H20.75C21.3688 23 21.875 22.4938 21.875 21.875V9.5L17.375 5H9.5Z" fill="#E2E5E7"/>
<path d="M18.5 9.5H21.875L17.375 5V8.375C17.375 8.99375 17.8812 9.5 18.5 9.5Z" fill="#B0B7BD"/>
<path d="M21.875 12.875L18.5 9.5H21.875V12.875Z" fill="#CAD1D8"/>
<path d="M19.625 19.625C19.625 19.9344 19.3719 20.1875 19.0625 20.1875H6.6875C6.37812 20.1875 6.125 19.9344 6.125 19.625V14C6.125 13.6906 6.37812 13.4375 6.6875 13.4375H19.0625C19.3719 13.4375 19.625 13.6906 19.625 14V19.625Z" fill="#F15642"/>
<path d="M8.44997 16.0626C8.55347 15.1897 9.87084 15.0327 10.4913 15.5097C10.7973 15.7567 10.4738 16.1481 10.2033 15.9501C9.87084 15.7392 9.11484 15.6402 9.02034 16.1071C8.89884 16.8451 10.8558 16.4226 10.8237 17.6191C10.7922 18.7615 9.13734 18.788 8.51634 18.2755C8.36784 18.154 8.37234 17.9566 8.4539 17.8345C8.57034 17.7181 8.70084 17.6776 8.85384 17.8036C9.22284 18.055 10.1718 18.244 10.2393 17.605C10.1813 16.9401 8.31047 17.3401 8.44997 16.0626Z" fill="white"/>
<path d="M14.3333 17.9874L14.4053 18.0723C14.7017 18.3423 14.3153 18.7833 14.0138 18.4998L13.8613 18.3789C13.6273 18.5403 13.3534 18.6174 12.9889 18.6174C12.1975 18.6174 11.293 18.0723 11.293 16.9659C11.293 15.8594 12.1924 15.2975 12.9889 15.2975C13.8248 15.2975 14.6438 15.8594 14.6438 16.9659C14.6438 17.3934 14.5352 17.7089 14.3333 17.9874ZM14.0627 16.9659C14.0627 16.2509 13.5008 15.887 12.9883 15.887C12.4354 15.887 11.8909 16.2504 11.8909 16.9659C11.8909 17.5109 12.3538 18.0279 12.9883 18.0279C13.1498 18.0279 13.3073 17.9874 13.4648 17.9469L12.9523 17.4744C12.7138 17.1864 13.0918 16.7769 13.3928 17.0424L13.9013 17.5503C14.0132 17.3934 14.0627 17.1999 14.0627 16.9659Z" fill="white"/>
<path d="M15.3066 15.6577C15.3066 15.5092 15.4326 15.3832 15.5901 15.3832C15.7341 15.3832 15.8556 15.5097 15.8556 15.6577V17.9111H17.0791C17.5195 17.9111 17.5291 18.5 17.0791 18.5H15.5907C15.4332 18.5 15.3072 18.3881 15.3072 18.2261V15.6577H15.3066V15.6577Z" fill="white"/>
<path d="M19.0625 20.1875H8.375V20.75H19.0625C19.3719 20.75 19.625 20.4969 19.625 20.1875V19.625C19.625 19.9344 19.3719 20.1875 19.0625 20.1875Z" fill="#CAD1D8"/>
</svg>
