<svg width="28" height="28" viewBox="0 0 28 28" fill="none" xmlns="http://www.w3.org/2000/svg">
<path d="M9.5 5C8.88125 5 8.375 5.50625 8.375 6.125V21.875C8.375 22.4938 8.88125 23 9.5 23H20.75C21.3688 23 21.875 22.4938 21.875 21.875V9.5L17.375 5H9.5Z" fill="#E2E5E7"/>
<path d="M18.5 9.5H21.875L17.375 5V8.375C17.375 8.99375 17.8812 9.5 18.5 9.5Z" fill="#B0B7BD"/>
<path d="M21.875 12.875L18.5 9.5H21.875V12.875Z" fill="#CAD1D8"/>
<path d="M19.625 19.625C19.625 19.9344 19.3719 20.1875 19.0625 20.1875H6.6875C6.37812 20.1875 6.125 19.9344 6.125 19.625V14C6.125 13.6906 6.37812 13.4375 6.6875 13.4375H19.0625C19.3719 13.4375 19.625 13.6906 19.625 14V19.625Z" fill="#F7B84E"/>
<path d="M8.40361 16.0621C8.50711 15.1897 9.82448 15.0327 10.4455 15.5097C10.7515 15.7567 10.4275 16.1482 10.1575 15.9502C9.82448 15.7387 9.06905 15.6397 8.97455 16.1071C8.85304 16.8451 10.8094 16.4227 10.7785 17.6186C10.747 18.761 9.09155 18.788 8.47054 18.275C8.32204 18.1541 8.32654 17.9566 8.40754 17.8346C8.52454 17.7181 8.65504 17.6776 8.80804 17.8031C9.17648 18.0551 10.126 18.2441 10.1929 17.6045C10.135 16.9396 8.26411 17.3401 8.40361 16.0621Z" fill="white"/>
<path d="M12.3514 18.298L11.1639 15.8107C10.9884 15.4552 11.5194 15.1632 11.7169 15.5362L12.1174 16.4401L12.6343 17.6275L13.1422 16.4401L13.5428 15.5362C13.7228 15.1947 14.2442 15.4102 14.0918 15.7837L12.9448 18.298C12.8413 18.5815 12.5224 18.6485 12.3514 18.298Z" fill="white"/>
<path d="M17.1559 18.1541C16.8364 18.419 16.4449 18.5321 16.0495 18.5321C15.1045 18.5321 14.4346 17.9921 14.4346 16.9216C14.4346 16.0132 15.1411 15.3073 16.0894 15.3073C16.4449 15.3073 16.8359 15.4288 17.1149 15.7033C17.3888 15.9727 16.9934 16.3732 16.7239 16.1353C16.5574 15.9727 16.3234 15.8518 16.0894 15.8518C15.5455 15.8518 15.0196 16.2877 15.0196 16.9216C15.0196 17.5876 15.46 17.9921 16.0495 17.9921C16.3234 17.9921 16.5574 17.9111 16.7239 17.7896V17.2372H16.0495C15.649 17.2372 15.6895 16.6876 16.0495 16.6876H16.9489C17.1154 16.6876 17.2679 16.8142 17.2679 16.9537V17.9116C17.2684 17.9921 17.2324 18.068 17.1559 18.1541Z" fill="white"/>
<path d="M19.0625 20.1875H8.375V20.75H19.0625C19.3719 20.75 19.625 20.4969 19.625 20.1875V19.625C19.625 19.9344 19.3719 20.1875 19.0625 20.1875Z" fill="#CAD1D8"/>
</svg>
