<svg width="28" height="28" viewBox="0 0 28 28" fill="none" xmlns="http://www.w3.org/2000/svg">
<path d="M9.5 5C8.88125 5 8.375 5.50625 8.375 6.125V21.875C8.375 22.4938 8.88125 23 9.5 23H20.75C21.3688 23 21.875 22.4938 21.875 21.875V9.5L17.375 5H9.5Z" fill="#E2E5E7"/>
<path d="M18.5 9.5H21.875L17.375 5V8.375C17.375 8.99375 17.8812 9.5 18.5 9.5Z" fill="#B0B7BD"/>
<path d="M21.875 12.875L18.5 9.5H21.875V12.875Z" fill="#CAD1D8"/>
<path d="M19.625 19.625C19.625 19.9344 19.3719 20.1875 19.0625 20.1875H6.6875C6.37812 20.1875 6.125 19.9344 6.125 19.625V14C6.125 13.6906 6.37812 13.4375 6.6875 13.4375H19.0625C19.3719 13.4375 19.625 13.6906 19.625 14V19.625Z" fill="#A066AA"/>
<path d="M10.4786 15.9502H9.69164C9.3007 15.9502 9.3007 15.3748 9.69164 15.3748H11.819C12.2189 15.3748 12.2189 15.9502 11.819 15.9502H11.0726V18.221C11.0726 18.612 10.4786 18.6215 10.4786 18.221C10.4786 18.221 10.4786 15.9502 10.4786 15.9502Z" fill="white"/>
<path d="M12.6484 15.6578C12.6484 15.2888 13.2424 15.2753 13.2424 15.6578V18.2251C13.2424 18.5986 12.6484 18.6076 12.6484 18.2251V15.6578Z" fill="white"/>
<path d="M14.6231 15.9721V16.687H15.7695C15.9315 16.687 16.0935 16.849 16.0935 17.0065C16.0935 17.155 15.9315 17.276 15.7695 17.276H14.6231V18.2204C14.6231 18.3779 14.5106 18.4994 14.3531 18.4994C14.1551 18.4994 14.0342 18.3779 14.0342 18.2204V15.6661C14.0342 15.5041 14.1557 15.3871 14.3531 15.3871H15.9321C16.1301 15.3871 16.2471 15.5041 16.2471 15.6661C16.2471 15.8101 16.1301 15.9715 15.9321 15.9715H14.6231V15.9721Z" fill="white"/>
<path d="M19.0625 20.1875H8.375V20.75H19.0625C19.3719 20.75 19.625 20.4969 19.625 20.1875V19.625C19.625 19.9344 19.3719 20.1875 19.0625 20.1875Z" fill="#CAD1D8"/>
</svg>
