<svg width="14" height="14" viewBox="0 0 14 14" fill="none" xmlns="http://www.w3.org/2000/svg">
<path d="M10.3333 2.99999H13.6666V4.33333H12.3333V13C12.3333 13.3682 12.0348 13.6667 11.6666 13.6667H2.33325C1.96507 13.6667 1.66659 13.3682 1.66659 13V4.33333H0.333252V2.99999H3.66659V0.999995C3.66659 0.631808 3.96507 0.333328 4.33325 0.333328H9.66659C10.0348 0.333328 10.3333 0.631808 10.3333 0.999995V2.99999ZM10.9999 4.33333H2.99992V12.3333H10.9999V4.33333ZM4.99992 6.33333H6.33325V10.3333H4.99992V6.33333ZM7.66659 6.33333H8.99992V10.3333H7.66659V6.33333ZM4.99992 1.66666V2.99999H8.99992V1.66666H4.99992Z" fill="white"/>
</svg>
