<svg width="28" height="28" viewBox="0 0 28 28" fill="none" xmlns="http://www.w3.org/2000/svg">
<path d="M9.5 5C8.88125 5 8.375 5.50625 8.375 6.125V21.875C8.375 22.4938 8.88125 23 9.5 23H20.75C21.3688 23 21.875 22.4938 21.875 21.875V9.5L17.375 5H9.5Z" fill="#E2E5E7"/>
<path d="M18.5 9.5H21.875L17.375 5V8.375C17.375 8.99375 17.8812 9.5 18.5 9.5Z" fill="#B0B7BD"/>
<path d="M21.875 12.875L18.5 9.5H21.875V12.875Z" fill="#CAD1D8"/>
<path d="M19.625 19.625C19.625 19.9344 19.3719 20.1875 19.0625 20.1875H6.6875C6.37812 20.1875 6.125 19.9344 6.125 19.625V14C6.125 13.6906 6.37812 13.4375 6.6875 13.4375H19.0625C19.3719 13.4375 19.625 13.6906 19.625 14V19.625Z" fill="#576D7E"/>
<path d="M9.66845 15.9504H8.88152C8.49002 15.9504 8.49002 15.375 8.88152 15.375H11.0089C11.4094 15.375 11.4094 15.9504 11.0089 15.9504H10.2619V18.2213C10.2619 18.6122 9.66789 18.6218 9.66789 18.2213V15.9504H9.66845Z" fill="white"/>
<path d="M12.8897 16.467L13.6727 15.4866C13.9067 15.1812 14.3607 15.5721 14.1048 15.8646C13.8347 16.1841 13.5518 16.5306 13.2812 16.885L14.1993 18.0274C14.4462 18.3649 13.9517 18.6889 13.7087 18.3559L12.8813 17.2945L12.0674 18.3784C11.8379 18.7063 11.3294 18.3379 11.5864 18.0319L12.4898 16.885C12.2069 16.53 11.9324 16.1841 11.6579 15.8646C11.3744 15.5271 11.9009 15.1812 12.1073 15.4962L12.8897 16.467Z" fill="white"/>
<path d="M15.4872 15.9501H14.7009C14.3094 15.9501 14.3094 15.3746 14.7009 15.3746H16.8277C17.2282 15.3746 17.2282 15.9501 16.8277 15.9501H16.0812V18.2209C16.0812 18.6118 15.4872 18.6214 15.4872 18.2209V15.9501V15.9501Z" fill="white"/>
<path d="M19.0625 20.1875H8.375V20.75H19.0625C19.3719 20.75 19.625 20.4969 19.625 20.1875V19.625C19.625 19.9344 19.3719 20.1875 19.0625 20.1875Z" fill="#CAD1D8"/>
</svg>
