<svg width="14" height="19" viewBox="0 0 14 19" fill="none" xmlns="http://www.w3.org/2000/svg">
<path d="M13.6668 18.3333H12.0002V16.6667C12.0002 15.2859 10.8809 14.1667 9.50016 14.1667H4.50016C3.11945 14.1667 2.00016 15.2859 2.00016 16.6667V18.3333H0.333496V16.6667C0.333496 14.3655 2.19898 12.5 4.50016 12.5H9.50016C11.8013 12.5 13.6668 14.3655 13.6668 16.6667V18.3333ZM7.00016 10.8333C4.23874 10.8333 2.00016 8.59475 2.00016 5.83334C2.00016 3.07191 4.23874 0.833336 7.00016 0.833336C9.76158 0.833336 12.0002 3.07191 12.0002 5.83334C12.0002 8.59475 9.76158 10.8333 7.00016 10.8333ZM7.00016 9.16667C8.84108 9.16667 10.3335 7.67429 10.3335 5.83334C10.3335 3.99239 8.84108 2.5 7.00016 2.5C5.15921 2.5 3.66683 3.99239 3.66683 5.83334C3.66683 7.67429 5.15921 9.16667 7.00016 9.16667Z" fill="#5B5B98"/>
</svg>
