<svg width="28" height="28" viewBox="0 0 28 28" fill="none" xmlns="http://www.w3.org/2000/svg">
<path d="M9.5 5C8.88125 5 8.375 5.50625 8.375 6.125V21.875C8.375 22.4938 8.88125 23 9.5 23H20.75C21.3688 23 21.875 22.4938 21.875 21.875V9.5L17.375 5H9.5Z" fill="#E2E5E7"/>
<path d="M18.5 9.5H21.875L17.375 5V8.375C17.375 8.99375 17.8812 9.5 18.5 9.5Z" fill="#B0B7BD"/>
<path d="M21.875 12.875L18.5 9.5H21.875V12.875Z" fill="#CAD1D8"/>
<path d="M19.625 19.625C19.625 19.9344 19.3719 20.1875 19.0625 20.1875H6.6875C6.37812 20.1875 6.125 19.9344 6.125 19.625V14C6.125 13.6906 6.37812 13.4375 6.6875 13.4375H19.0625C19.3719 13.4375 19.625 13.6906 19.625 14V19.625Z" fill="#84BD5A"/>
<path d="M10.3861 17.4255L11.0561 15.572C11.1905 15.2087 11.735 15.3785 11.6 15.77L10.7096 18.186C10.6286 18.4419 10.5526 18.519 10.3991 18.519C10.2376 18.519 10.1876 18.4194 10.0981 18.2574L9.31571 16.4805L8.56927 18.2304C8.48771 18.4189 8.41233 18.5269 8.24977 18.5269C8.09283 18.5269 8.01127 18.4189 7.93983 18.2209L7.06739 15.7695C6.93239 15.365 7.50333 15.2171 7.61977 15.5715L8.28577 17.4249L9.08227 15.5715C9.18971 15.2975 9.47321 15.2835 9.58964 15.5585L10.3861 17.4255Z" fill="white"/>
<path d="M12.7253 16.5256V18.19C12.7253 18.388 12.5633 18.5 12.4018 18.5C12.2578 18.5 12.1318 18.388 12.1318 18.19V15.6577C12.1318 15.4237 12.3304 15.3472 12.4018 15.3472C12.5318 15.3472 12.6083 15.4237 12.6848 15.5092L13.6748 16.8451L14.6996 15.4597C14.8487 15.2752 15.2126 15.3472 15.2126 15.6577V18.19C15.2126 18.388 15.0861 18.5 14.9426 18.5C14.7812 18.5 14.6546 18.388 14.6546 18.19V16.5256L13.9082 17.4706C13.7468 17.6686 13.5443 17.6686 13.3958 17.4706L12.7253 16.5256Z" fill="white"/>
<path d="M16.9451 18.2981L15.7577 15.8107C15.5822 15.4558 16.1132 15.1638 16.3106 15.5368L16.7111 16.4402L17.2281 17.6276L17.736 16.4402L18.1365 15.5368C18.3165 15.1948 18.8379 15.4108 18.6855 15.7843L17.5386 18.2981C17.4351 18.5816 17.1161 18.6485 16.9451 18.2981Z" fill="white"/>
<path d="M19.0625 20.1875H8.375V20.75H19.0625C19.3719 20.75 19.625 20.4969 19.625 20.1875V19.625C19.625 19.9344 19.3719 20.1875 19.0625 20.1875Z" fill="#CAD1D8"/>
</svg>
