<svg width="28" height="28" viewBox="0 0 28 28" fill="none" xmlns="http://www.w3.org/2000/svg">
<path d="M9.5 5C8.88125 5 8.375 5.50625 8.375 6.125V21.875C8.375 22.4938 8.88125 23 9.5 23H20.75C21.3688 23 21.875 22.4938 21.875 21.875V9.5L17.375 5H9.5Z" fill="#E2E5E7"/>
<path d="M18.5 9.5H21.875L17.375 5V8.375C17.375 8.99375 17.8812 9.5 18.5 9.5Z" fill="#B0B7BD"/>
<path d="M21.875 12.875L18.5 9.5H21.875V12.875Z" fill="#CAD1D8"/>
<path d="M19.625 19.625C19.625 19.9344 19.3719 20.1875 19.0625 20.1875H6.6875C6.37812 20.1875 6.125 19.9344 6.125 19.625V14C6.125 13.6906 6.37812 13.4375 6.6875 13.4375H19.0625C19.3719 13.4375 19.625 13.6906 19.625 14V19.625Z" fill="#84BD5A"/>
<path d="M10.0742 16.4675L10.8566 15.4871C11.0906 15.1811 11.5451 15.572 11.2886 15.8645C11.0192 16.184 10.7357 16.5305 10.4657 16.8855L11.3831 18.0279C11.6306 18.3654 11.1362 18.6888 10.8932 18.3558L10.0652 17.2944L9.25125 18.3789C9.02175 18.7068 8.51325 18.3384 8.76975 18.0324L9.67369 16.8855C9.39019 16.53 9.11569 16.184 8.84175 15.8645C8.55881 15.527 9.08475 15.1811 9.29175 15.4966L10.0742 16.4675Z" fill="white"/>
<path d="M11.9385 15.6577C11.9385 15.5092 12.0645 15.3832 12.222 15.3832C12.366 15.3832 12.4875 15.5097 12.4875 15.6577V17.9111H13.7109C14.1514 17.9111 14.1609 18.5 13.7109 18.5H12.2225C12.065 18.5 11.939 18.3881 11.939 18.2261V15.6577H11.9385V15.6577Z" fill="white"/>
<path d="M14.5639 16.0626C14.6674 15.1897 15.9848 15.0327 16.6058 15.5097C16.9118 15.7567 16.5878 16.1481 16.3178 15.9501C15.9848 15.7392 15.2294 15.6402 15.1349 16.1071C15.0134 16.8451 16.9698 16.4226 16.9383 17.6191C16.9068 18.7615 15.2519 18.788 14.6309 18.2755C14.4818 18.154 14.4869 17.9566 14.5679 17.8345C14.6849 17.7181 14.8148 17.6776 14.9684 17.8036C15.3368 18.055 16.2863 18.244 16.3533 17.605C16.2953 16.9401 14.4244 17.3401 14.5639 16.0626Z" fill="white"/>
<path d="M19.0625 20.1875H8.375V20.75H19.0625C19.3719 20.75 19.625 20.4969 19.625 20.1875V19.625C19.625 19.9344 19.3719 20.1875 19.0625 20.1875Z" fill="#CAD1D8"/>
</svg>
