<svg width="28" height="28" viewBox="0 0 28 28" fill="none" xmlns="http://www.w3.org/2000/svg">
<path d="M9.5 5C8.88125 5 8.375 5.50625 8.375 6.125V21.875C8.375 22.4938 8.88125 23 9.5 23H20.75C21.3688 23 21.875 22.4938 21.875 21.875V9.5L17.375 5H9.5Z" fill="#E2E5E7"/>
<path d="M18.5 9.5H21.875L17.375 5V8.375C17.375 8.99375 17.8812 9.5 18.5 9.5Z" fill="#B0B7BD"/>
<path d="M21.875 12.875L18.5 9.5H21.875V12.875Z" fill="#CAD1D8"/>
<path d="M19.625 19.625C19.625 19.9344 19.3719 20.1875 19.0625 20.1875H6.6875C6.37812 20.1875 6.125 19.9344 6.125 19.625V14C6.125 13.6906 6.37812 13.4375 6.6875 13.4375H19.0625C19.3719 13.4375 19.625 13.6906 19.625 14V19.625Z" fill="#50BEE8"/>
<path d="M9.61533 16.4672L10.3983 15.4867C10.6318 15.1813 11.0863 15.5722 10.8303 15.8647C10.5609 16.1842 10.2774 16.5307 10.0068 16.8851L10.9248 18.0275C11.1718 18.365 10.6773 18.689 10.4343 18.356L9.60689 17.2946L8.79295 18.3785C8.56345 18.7065 8.05495 18.338 8.31201 18.032L9.21595 16.8851C8.93245 16.5302 8.65795 16.1842 8.38401 15.8647C8.10051 15.5272 8.62701 15.1813 8.83345 15.4963L9.61533 16.4672Z" fill="white"/>
<path d="M12.0759 16.5257V18.1896C12.0759 18.3881 11.9139 18.5001 11.7524 18.5001C11.6084 18.5001 11.4824 18.3881 11.4824 18.1896V15.6577C11.4824 15.4237 11.681 15.3467 11.7524 15.3467C11.8824 15.3467 11.9589 15.4237 12.0354 15.5092L13.0254 16.8446L14.0502 15.4592C14.1993 15.2752 14.5632 15.3467 14.5632 15.6577V18.1896C14.5632 18.3881 14.4372 18.5001 14.2938 18.5001C14.1318 18.5001 14.0058 18.3881 14.0058 18.1896V16.5257L13.2588 17.4701C13.0974 17.6687 12.8949 17.6687 12.7464 17.4701L12.0759 16.5257Z" fill="white"/>
<path d="M15.3457 15.6577C15.3457 15.5092 15.4717 15.3832 15.6292 15.3832C15.7732 15.3832 15.8947 15.5097 15.8947 15.6577V17.9111H17.1181C17.5586 17.9111 17.5681 18.5 17.1181 18.5H15.6298C15.4723 18.5 15.3463 18.3881 15.3463 18.2255V15.6577H15.3457Z" fill="white"/>
<path d="M19.0625 20.1875H8.375V20.75H19.0625C19.3719 20.75 19.625 20.4969 19.625 20.1875V19.625C19.625 19.9344 19.3719 20.1875 19.0625 20.1875Z" fill="#CAD1D8"/>
</svg>
