<svg width="28" height="28" viewBox="0 0 28 28" fill="none" xmlns="http://www.w3.org/2000/svg">
<path d="M9.5 5C8.88125 5 8.375 5.50625 8.375 6.125V21.875C8.375 22.4938 8.88125 23 9.5 23H20.75C21.3688 23 21.875 22.4938 21.875 21.875V9.5L17.375 5H9.5Z" fill="#E2E5E7"/>
<path d="M18.5 9.5H21.875L17.375 5V8.375C17.375 8.99375 17.8812 9.5 18.5 9.5Z" fill="#B0B7BD"/>
<path d="M21.875 12.875L18.5 9.5H21.875V12.875Z" fill="#CAD1D8"/>
<path d="M19.625 19.625C19.625 19.9344 19.3719 20.1875 19.0625 20.1875H6.6875C6.37812 20.1875 6.125 19.9344 6.125 19.625V14C6.125 13.6906 6.37812 13.4375 6.6875 13.4375H19.0625C19.3719 13.4375 19.625 13.6906 19.625 14V19.625Z" fill="#84BD5A"/>
<path d="M9.66311 18.5007C9.37961 18.5007 9.26711 18.2268 9.42911 18.0333L11.0305 15.9059H9.70304C9.31211 15.9059 9.34361 15.3535 9.70304 15.3535H11.516C11.8574 15.3535 11.9564 15.6764 11.714 15.938L10.18 17.9298H11.642C12.002 17.9298 12.047 18.5013 11.6065 18.5013H9.66311V18.5007Z" fill="white"/>
<path d="M12.4551 15.6576C12.4551 15.2886 13.0491 15.2751 13.0491 15.6576V18.2254C13.0491 18.5983 12.4551 18.6079 12.4551 18.2254V15.6576Z" fill="white"/>
<path d="M13.8457 15.6577C13.8457 15.5092 13.9627 15.3472 14.1517 15.3472H15.1906C15.7756 15.3472 16.3021 15.7387 16.3021 16.489C16.3021 17.2 15.7756 17.596 15.1906 17.596H14.4397V18.19C14.4397 18.388 14.3137 18.5 14.1517 18.5C14.0032 18.5 13.8457 18.388 13.8457 18.19V15.6577ZM14.4391 15.9136V17.0341H15.1901C15.4916 17.0341 15.7301 16.768 15.7301 16.489C15.7301 16.1746 15.4916 15.9136 15.1901 15.9136H14.4391Z" fill="white"/>
<path d="M19.0625 20.1875H8.375V20.75H19.0625C19.3719 20.75 19.625 20.4969 19.625 20.1875V19.625C19.625 19.9344 19.3719 20.1875 19.0625 20.1875Z" fill="#CAD1D8"/>
</svg>
