<svg width="58" height="58" viewBox="0 0 58 58" fill="none" xmlns="http://www.w3.org/2000/svg">
<path d="M52.6963 24.2676H50.7497V24.1673H28.9997V33.834H42.6575C40.6649 39.4612 35.3108 43.5006 28.9997 43.5006C20.992 43.5006 14.4997 37.0083 14.4997 29.0006C14.4997 20.993 20.992 14.5007 28.9997 14.5007C32.696 14.5007 36.0588 15.8951 38.6192 18.1728L45.4548 11.3372C41.1386 7.31469 35.3652 4.83398 28.9997 4.83398C15.6536 4.83398 4.83301 15.6546 4.83301 29.0006C4.83301 42.3467 15.6536 53.1673 28.9997 53.1673C42.3457 53.1673 53.1663 42.3467 53.1663 29.0006C53.1663 27.3803 52.9996 25.7986 52.6963 24.2676Z" fill="#FFC107"/>
<path d="M7.62012 17.7523L15.5601 23.5752C17.7085 18.2562 22.9116 14.5007 29.0004 14.5007C32.6967 14.5007 36.0594 15.8951 38.6199 18.1728L45.4554 11.3372C41.1393 7.31469 35.3659 4.83398 29.0004 4.83398C19.7179 4.83398 11.668 10.0745 7.62012 17.7523Z" fill="#FF3D00"/>
<path d="M28.9997 53.1665C35.242 53.1665 40.9139 50.7776 45.2023 46.8929L37.7227 40.5636C35.2148 42.4708 32.1504 43.5024 28.9997 43.4999C22.714 43.4999 17.3768 39.4918 15.3661 33.8984L7.48535 39.9703C11.4849 47.7967 19.6074 53.1665 28.9997 53.1665Z" fill="#4CAF50"/>
<path d="M52.6966 24.2663H50.75V24.166H29V33.8327H42.6578C41.7047 36.5108 39.9878 38.8511 37.7193 40.5643L37.723 40.5619L45.2025 46.8911C44.6733 47.3721 53.1667 41.0827 53.1667 28.9993C53.1667 27.379 52.9999 25.7973 52.6966 24.2663Z" fill="#1976D2"/>
</svg>
