<svg width="24" height="24" viewBox="0 0 24 24" fill="none" xmlns="http://www.w3.org/2000/svg">
<path fill-rule="evenodd" clip-rule="evenodd" d="M16.8282 2.63468C13.6482 1.92386 10.3506 1.92386 7.17062 2.63468L6.82798 2.71049C5.93349 2.91048 5.11196 3.35451 4.45464 3.99328C3.79731 4.63205 3.32994 5.44053 3.10443 6.32892C2.29836 9.50518 2.29836 12.8325 3.10443 16.0087C3.31949 16.856 3.75474 17.6313 4.36606 18.2561C4.97738 18.881 5.74303 19.333 6.5854 19.5665L7.05539 22.3723C7.07039 22.4614 7.10901 22.5449 7.16721 22.614C7.22542 22.6831 7.30108 22.7353 7.38633 22.7652C7.47158 22.7952 7.56329 22.8017 7.65192 22.7841C7.74055 22.7666 7.82285 22.7256 7.89026 22.6654L10.6506 20.1962C12.7227 20.3227 14.8023 20.157 16.8282 19.704L17.1718 19.6282C18.0663 19.4282 18.8879 18.9842 19.5452 18.3454C20.2025 17.7066 20.6699 16.8981 20.8954 16.0097C21.7014 12.8335 21.7014 9.50621 20.8954 6.32993C20.6698 5.44141 20.2023 4.63284 19.5448 3.99406C18.8872 3.35528 18.0655 2.91132 17.1708 2.7115L16.8282 2.63468ZM8.02368 6.24705C7.83583 6.21971 7.64428 6.25752 7.48091 6.35419H7.46676C7.08774 6.57655 6.74611 6.85653 6.45501 7.18603C6.21244 7.466 6.08104 7.74901 6.04668 8.0219C6.02646 8.18362 6.04061 8.34736 6.08812 8.502L6.10631 8.51211C6.37921 9.31362 6.73499 10.0848 7.1696 10.8105C7.73001 11.8298 8.41964 12.7726 9.2214 13.6153L9.24566 13.6497L9.28406 13.678L9.30731 13.7053L9.33561 13.7295C10.1813 14.5337 11.1262 15.2266 12.1475 15.7914C13.3149 16.4272 14.0234 16.7274 14.4489 16.8527V16.8588C14.5732 16.8972 14.6864 16.9144 14.8007 16.9144C15.1631 16.8876 15.5061 16.7403 15.775 16.4959C16.1035 16.2048 16.3814 15.8622 16.5977 15.4811V15.4741C16.8009 15.09 16.7322 14.7281 16.4391 14.4825C15.8503 13.9681 15.2137 13.5112 14.5379 13.118C14.0851 12.8724 13.6252 13.021 13.4392 13.2696L13.042 13.771C12.8378 14.0196 12.4679 13.9852 12.4679 13.9852L12.4578 13.9913C9.69745 13.2868 8.96063 10.4921 8.96063 10.4921C8.96063 10.4921 8.92626 10.1121 9.18198 9.91804L9.67926 9.51779C9.91779 9.32373 10.0836 8.86486 9.82784 8.41205C9.4373 7.73563 8.98129 7.09918 8.46638 6.51187C8.35407 6.37364 8.19658 6.2795 8.02165 6.24604L8.02368 6.24705ZM12.6872 5.03215C12.5532 5.03215 12.4246 5.08539 12.3299 5.18017C12.2351 5.27494 12.1818 5.40348 12.1818 5.53752C12.1818 5.67155 12.2351 5.80009 12.3299 5.89487C12.4246 5.98964 12.5532 6.04288 12.6872 6.04288C13.9658 6.04288 15.0271 6.46032 15.867 7.26082C16.2986 7.69847 16.6351 8.21698 16.8555 8.78501C17.0768 9.35405 17.1779 9.96151 17.1516 10.57C17.1488 10.6363 17.1592 10.7026 17.182 10.765C17.2048 10.8274 17.2397 10.8846 17.2846 10.9335C17.3754 11.0323 17.5017 11.0909 17.6358 11.0966C17.7698 11.1022 17.9006 11.0543 17.9993 10.9636C18.0981 10.8728 18.1567 10.7465 18.1624 10.6124C18.1937 9.86396 18.0695 9.11712 17.7975 8.41912C17.5243 7.71781 17.1101 7.08002 16.5806 6.54522L16.5705 6.53511C15.5284 5.53954 14.2094 5.03215 12.6872 5.03215ZM12.6528 6.6938C12.5188 6.6938 12.3903 6.74704 12.2955 6.84182C12.2007 6.93659 12.1475 7.06513 12.1475 7.19917C12.1475 7.3332 12.2007 7.46174 12.2955 7.55651C12.3903 7.65129 12.5188 7.70453 12.6528 7.70453H12.67C13.5918 7.77023 14.2629 8.0775 14.7329 8.58185C15.2151 9.10137 15.4647 9.74723 15.4455 10.5457C15.4424 10.6797 15.4927 10.8095 15.5853 10.9065C15.6779 11.0034 15.8052 11.0596 15.9393 11.0627C16.0733 11.0658 16.203 11.0155 16.3 10.9229C16.397 10.8303 16.4532 10.703 16.4562 10.569C16.4805 9.52082 16.1429 8.61622 15.4738 7.89455V7.89253C14.7895 7.15874 13.8506 6.77061 12.7206 6.69481L12.7034 6.69279L12.6528 6.6938ZM12.6336 8.38678C12.566 8.38081 12.4979 8.38853 12.4333 8.40948C12.3687 8.43043 12.309 8.46418 12.2578 8.50871C12.2065 8.55325 12.1648 8.60765 12.135 8.66867C12.1052 8.7297 12.0881 8.79609 12.0845 8.8639C12.081 8.9317 12.0912 8.99952 12.1144 9.06331C12.1377 9.12709 12.1736 9.18554 12.2199 9.23516C12.2662 9.28477 12.3221 9.32454 12.3842 9.35209C12.4462 9.37964 12.5132 9.3944 12.5811 9.39549C13.0036 9.41773 13.2734 9.54508 13.4432 9.7159C13.6141 9.88772 13.7414 10.1637 13.7647 10.5952C13.7659 10.6631 13.7808 10.7299 13.8085 10.7919C13.8361 10.8538 13.876 10.9095 13.9256 10.9558C13.9753 11.002 14.0337 11.0377 14.0975 11.0609C14.1612 11.084 14.229 11.0941 14.2967 11.0905C14.3645 11.0869 14.4308 11.0697 14.4917 11.0399C14.5527 11.0102 14.607 10.9684 14.6515 10.9172C14.696 10.866 14.7297 10.8064 14.7506 10.7418C14.7716 10.6773 14.7793 10.6092 14.7734 10.5417C14.741 9.93523 14.551 9.39954 14.1619 9.00535C13.7707 8.61116 13.2381 8.41912 12.6336 8.38678Z" fill="#7360F2"/>
</svg>
