<svg width="20" height="20" viewBox="0 0 20 20" fill="none" xmlns="http://www.w3.org/2000/svg">
<g clip-path="url(#clip0_5190_29239)">
<path d="M10 0C4.47715 0 0 4.47715 0 9.99999C0 14.9913 3.65685 19.1283 8.43751 19.8785V12.8906H5.89842V9.99999H8.43751V7.79687C8.43751 5.29062 9.93041 3.90625 12.2146 3.90625C13.3087 3.90625 14.4531 4.10156 14.4531 4.10156V6.56249H13.1921C11.9499 6.56249 11.5625 7.33333 11.5625 8.12419V9.99999H14.3359L13.8926 12.8906H11.5625V19.8785C16.3431 19.1283 20 14.9913 20 9.99999C20 4.47715 15.5228 0 10 0Z" fill="#0F46B9" style="mix-blend-mode:multiply"/>
</g>
<defs>
<clipPath id="clip0_5190_29239">
<rect width="20" height="20" fill="white"/>
</clipPath>
</defs>
</svg>
