<svg width="20" height="20" viewBox="0 0 20 20" fill="none" xmlns="http://www.w3.org/2000/svg">
<g clip-path="url(#clip0_5190_29235)">
<path d="M9.5 0C4.14838 0 0 3.92009 0 9.215C0 11.9846 1.13503 14.3778 2.98359 16.0309C3.13871 16.1697 3.23238 16.3643 3.23876 16.5725L3.29049 18.2625C3.30704 18.8015 3.86375 19.1522 4.35701 18.9345L6.24261 18.102C6.40243 18.0315 6.58167 18.0184 6.75005 18.0648C7.61655 18.303 8.53872 18.4299 9.5 18.4299C14.8516 18.4299 19 14.5098 19 9.21493C19 3.92001 14.8516 0 9.5 0Z" fill="#0099FF"/>
<path d="M3.79529 11.91L6.58591 7.48268C7.02974 6.77834 7.98033 6.60296 8.64637 7.10246L10.8659 8.76718C10.965 8.84153 11.0857 8.88155 11.2096 8.88119C11.3335 8.88082 11.4539 8.8401 11.5526 8.76518L14.5501 6.49022C14.9501 6.1866 15.4725 6.66538 15.2047 7.09028L12.4141 11.5177C11.9702 12.222 11.0195 12.3974 10.3536 11.8979L8.13397 10.2332C8.03486 10.1588 7.91424 10.1188 7.79037 10.1192C7.6665 10.1196 7.54612 10.1603 7.44744 10.2352L4.44975 12.5101C4.04971 12.8137 3.52743 12.335 3.79529 11.91Z" fill="white"/>
</g>
<defs>
<clipPath id="clip0_5190_29235">
<rect width="19" height="19" fill="white"/>
</clipPath>
</defs>
</svg>
