<svg width="20" height="20" viewBox="0 0 20 20" fill="none" xmlns="http://www.w3.org/2000/svg">
<path d="M15.9766 11.6462C16.4302 11.6462 16.793 11.2643 16.793 10.8375C16.793 10.3882 16.4302 10.0289 15.9766 10.0289C15.5232 10.0289 15.1604 10.3882 15.1604 10.8375C15.1604 11.2868 15.5232 11.6462 15.9766 11.6462ZM11.9534 11.6462C12.4068 11.6462 12.7696 11.2643 12.7696 10.8375C12.7696 10.3882 12.4068 10.0289 11.9534 10.0289C11.4998 10.0289 11.137 10.3882 11.137 10.8375C11.137 11.2868 11.4998 11.6462 11.9534 11.6462ZM17.9236 16.1852C17.812 16.2516 17.745 16.3622 17.7674 16.5171C17.7674 16.5614 17.7674 16.6057 17.7896 16.6499C17.879 17.0261 18.0575 17.6237 18.0575 17.6459C18.0575 17.7123 18.0799 17.7565 18.0799 17.8008C18.0799 17.9115 17.9906 18 17.879 18C17.8343 18 17.812 17.9778 17.7674 17.9557L16.4501 17.2032C16.3607 17.159 16.2491 17.1147 16.1375 17.1147C16.0705 17.1147 16.0035 17.1147 15.9589 17.1368C15.3337 17.3139 14.6863 17.4024 13.9942 17.4024C10.6675 17.4024 7.98833 15.1892 7.98833 12.4449C7.98833 9.70057 10.6675 7.48735 13.9942 7.48735C17.3208 7.48735 20 9.70057 20 12.4449C20 13.9277 19.1962 15.2777 17.9236 16.1852ZM14.2479 6.59065C14.1636 6.58809 14.0791 6.58679 13.9942 6.58679C10.199 6.58679 7.07924 9.16266 7.07924 12.4449C7.07924 12.9435 7.15122 13.4257 7.28661 13.8851H7.20557C6.39998 13.8851 5.59439 13.7525 4.85592 13.5538C4.7888 13.5316 4.72166 13.5316 4.65453 13.5316C4.52026 13.5316 4.386 13.5758 4.27411 13.6421L2.68531 14.5478C2.64055 14.57 2.59579 14.592 2.55103 14.592C2.41677 14.592 2.30489 14.4816 2.30489 14.3491C2.30489 14.2828 2.32726 14.2386 2.34964 14.1723C2.37202 14.1502 2.57342 13.4212 2.68531 12.9794C2.68531 12.9352 2.70768 12.8689 2.70768 12.8248C2.70768 12.648 2.61817 12.5154 2.50628 12.4271C0.962235 11.3446 0 9.73199 0 7.94255C0 4.65096 3.24474 2 7.22795 2C10.6497 2 13.5266 3.95291 14.2479 6.59065ZM9.56265 6.9675C10.0834 6.9675 10.4956 6.53764 10.4956 6.04332C10.4956 5.52749 10.0834 5.11913 9.56265 5.11913C9.04192 5.11913 8.62974 5.52749 8.62974 6.04332C8.62974 6.55914 9.04192 6.9675 9.56265 6.9675ZM4.78133 6.9675C5.30205 6.9675 5.71428 6.53764 5.71428 6.04332C5.71428 5.52749 5.30205 5.11913 4.78133 5.11913C4.26062 5.11913 3.84839 5.52749 3.84839 6.04332C3.84839 6.55914 4.26062 6.9675 4.78133 6.9675Z" fill="#757FEF"/>
</svg>
